<svg xmlns="http://www.w3.org/2000/svg" width="810" height="607" viewBox="0 0 810 607">
<g>
<path d="M 369.42,490.11 L 369.35,490.24 L 369.45,490.02 M 410.42,339.91 L 412.38,340.07 L 416.15,340.67 L 421.50,342.00 L 424.69,343.00 L 430.65,345.60 L 433.55,346.99 L 438.90,350.32 L 441.49,352.07 L 446.19,356.10 L 448.46,358.19 L 452.48,362.87 L 454.40,365.28 L 457.71,370.56 L 459.27,373.27 L 461.82,379.11 L 463.00,382.09 L 464.77,388.44 L 466.49,398.50 L 466.66,400.04 L 466.71,403.33 L 466.70,404.99 L 466.41,408.45 L 466.23,410.20 L 465.63,413.75 L 465.29,415.53 L 464.40,419.08 L 463.92,420.85 L 462.76,424.33 L 462.14,426.05 L 460.74,429.35 L 460.00,430.98 L 458.37,434.02 L 455.71,438.22 L 454.40,440.03 L 451.69,443.37 L 450.31,445.00 L 447.45,447.96 L 446.00,449.39 L 442.97,451.99 L 441.43,453.24 L 438.21,455.49 L 436.57,456.57 L 433.14,458.47 L 431.39,459.39 L 427.73,460.97 L 425.87,461.72 L 421.95,462.98 L 415.78,464.55 L 414.24,464.87 L 411.04,465.33 L 409.43,465.53 L 406.13,465.74 L 402.82,465.89 L 396.20,465.49 L 394.57,465.33 L 391.41,464.85 L 389.85,464.59 L 386.88,463.89 L 385.42,463.51 L 382.71,462.60 L 379.02,461.01 L 377.83,460.40 L 375.97,459.63 L 375.12,459.31 L 373.83,459.10 L 373.26,459.07 L 372.44,459.42 L 371.61,460.58 L 371.57,460.69 L 371.48,461.16 L 371.45,461.43 L 371.37,462.20 L 371.30,463.03 L 371.18,465.42 L 371.12,466.71 L 371.05,469.79 L 371.00,474.83 L 371.00,476.61 L 370.94,479.67 L 370.89,481.13 L 370.73,483.62 L 370.63,484.80 L 370.32,486.80 L 370.15,487.75 L 369.84,488.80 L 369.86,488.74 L 370.30,486.78 L 370.45,485.57 L 370.71,482.97 L 370.79,481.38 L 370.93,478.00 L 370.96,475.95 L 370.98,473.85 L 370.99,472.69 L 371.00,470.33 L 371.00,469.04 L 371.00,450.58 L 373.75,453.64 L 375.92,455.58 L 377.71,456.79 L 378.75,457.36 L 380.94,458.46 L 382.15,458.95 L 384.66,459.91 L 386.01,460.33 L 388.78,461.12 L 390.23,461.45 L 393.19,462.06 L 394.72,462.29 L 400.93,463.00 L 404.06,463.00 L 407.29,462.96 L 409.26,462.89 L 410.16,462.82 L 413.56,462.51 L 415.05,462.23 L 417.91,461.59 L 419.26,461.12 L 421.94,460.09 L 423.33,459.40 L 426.02,458.41 L 427.86,458.00 L 428.50,458.00 L 429.65,457.80 L 430.55,457.49 L 431.03,457.27 L 433.00,456.19 L 433.82,455.50 L 436.19,453.73 L 436.87,453.32 L 437.13,453.20 L 437.60,453.00 L 437.73,453.00 L 438.31,452.76 L 438.85,452.39 L 439.18,452.12 L 440.61,450.82 L 441.34,450.00 L 443.67,447.88 L 444.40,447.39 L 444.72,447.24 L 445.30,447.00 L 445.51,447.00 L 446.56,446.64 L 447.00,446.10 L 447.00,445.76 L 447.20,445.08 L 447.51,444.49 L 447.74,444.15 L 448.83,442.70 L 449.52,442.01 L 451.93,439.24 L 453.62,437.01 L 454.37,435.90 L 455.77,433.72 L 456.25,432.84 L 456.67,432.01 L 456.80,431.68 L 457.00,431.10 L 457.00,430.92 L 457.17,430.20 L 457.45,429.45 L 457.65,428.98 L 458.61,426.87 L 459.22,425.71 L 460.82,422.06 L 461.73,419.37 L 462.11,417.91 L 462.80,414.94 L 463.06,413.39 L 463.52,410.25 L 463.67,408.65 L 464.01,402.19 L 463.80,399.07 L 463.53,395.98 L 463.30,394.51 L 462.77,391.63 L 462.40,390.30 L 461.05,385.09 L 460.63,383.39 L 460.46,382.65 L 460.14,381.24 L 460.03,380.72 L 459.04,377.55 L 458.61,376.59 L 458.40,376.19 L 457.96,375.46 L 457.75,375.22 L 456.48,373.36 L 455.75,371.89 L 455.56,371.29 L 455.20,370.59 L 454.77,369.97 L 454.47,369.59 L 453.05,367.91 L 452.09,366.87 L 450.00,364.67 L 448.79,363.47 L 446.28,361.00 L 444.96,359.74 L 442.28,357.24 L 440.96,356.05 L 438.36,353.75 L 437.18,352.76 L 434.91,350.89 L 433.98,350.20 L 433.10,349.56 L 432.73,349.32 L 432.03,348.88 L 431.76,348.75 L 428.77,347.42 L 426.46,346.48 L 425.19,345.99 L 419.80,344.04 L 416.93,343.13 L 414.86,342.66 L 413.18,342.40 L 412.24,342.31 L 408.28,342.03 L 406.31,342.03 L 404.37,342.04 L 403.48,342.09 L 401.78,342.19 L 401.07,342.28 L 399.76,342.48 L 399.31,342.61 L 398.56,342.90 L 398.45,343.08 L 397.25,343.62 L 395.97,343.64 L 395.26,343.51 L 393.83,343.16 L 393.24,342.88 L 392.16,342.26 L 391.93,341.88 L 391.25,341.49 L 390.49,341.39 L 389.98,341.42 L 389.09,341.50 L 392.23,340.86 L 394.25,340.49 L 398.34,340.02 L 400.38,339.82 L 404.44,339.69 L 406.46,339.68 M 254.14,463.25 L 255.97,464.55 L 256.77,465.04 L 258.30,465.90 L 259.01,466.19 L 259.74,466.45 L 259.00,466.19 L 258.30,465.90 L 256.76,465.03 L 255.96,464.55 L 254.12,463.25 L 253.16,462.55 L 252.97,462.39 M 551.45,368.18 L 553.29,368.43 L 557.06,369.08 L 559.17,369.62 L 563.97,371.21 L 566.68,372.55 L 567.93,373.47 L 570.38,375.51 L 571.65,376.88 L 572.93,378.32 L 573.61,379.15 L 574.99,380.89 L 575.74,381.88 L 577.66,384.62 L 578.64,386.23 L 578.98,386.96 L 579.58,388.35 L 579.74,388.99 L 579.99,390.23 L 579.99,390.82 L 580.30,393.73 L 580.76,395.54 L 581.04,396.08 L 581.27,396.97 L 581.42,398.01 L 581.49,398.73 L 581.62,400.31 L 581.69,401.29 L 581.81,403.38 L 581.87,404.59 L 581.98,407.13 L 582.03,408.55 L 582.13,411.50 L 582.17,413.11 L 582.25,416.43 L 582.28,418.21 L 582.34,421.84 L 582.36,423.76 L 582.44,429.57 L 582.50,433.11 L 582.54,434.71 L 582.62,437.82 L 582.68,439.22 L 582.80,441.93 L 582.88,443.14 L 583.05,445.48 L 583.16,446.53 L 583.38,448.53 L 583.52,449.41 L 583.81,451.10 L 583.99,451.84 L 584.36,453.25 L 584.58,453.86 L 585.54,456.05 L 586.18,456.84 L 587.57,458.22 L 588.45,458.69 L 590.35,459.51 L 591.52,459.78 L 594.01,460.25 L 595.50,460.44 L 598.12,460.66 L 599.53,460.64 L 600.15,460.54 L 601.34,460.26 L 601.92,460.02 L 603.10,459.45 L 603.75,459.05 L 606.05,457.15 L 606.58,456.50 L 606.74,456.20 L 607.00,455.64 L 607.00,455.42 L 607.18,454.54 L 607.46,453.79 L 607.66,453.36 L 608.63,451.52 L 609.25,450.65 L 610.48,448.51 L 610.77,447.69 L 610.89,447.21 L 611.11,446.17 L 611.20,445.53 L 611.37,444.15 L 611.43,443.31 L 611.55,441.49 L 611.60,440.38 L 611.69,438.01 L 611.73,436.58 L 611.81,433.55 L 611.85,431.75 L 611.89,429.97 L 611.90,430.82 L 611.92,432.22 L 611.94,434.75 L 611.95,435.97 L 611.97,438.16 L 611.97,439.22 L 611.97,441.10 L 611.97,442.01 L 611.96,443.61 L 611.94,445.16 L 611.85,447.55 L 611.79,448.64 L 611.62,450.33 L 611.52,451.10 L 611.25,452.32 L 610.03,455.44 L 609.31,456.92 L 607.59,459.27 L 606.67,460.35 L 604.49,461.94 L 603.34,462.64 L 600.65,463.49 L 595.98,464.00 L 594.95,464.00 L 593.26,463.88 L 592.46,463.80 L 591.10,463.47 L 590.44,463.28 L 589.22,462.69 L 587.36,461.46 L 586.63,460.91 L 585.44,459.93 L 584.88,459.44 L 583.99,458.39 L 583.58,457.82 L 582.94,456.40 L 582.65,455.62 L 582.21,453.55 L 582.01,452.41 L 581.72,449.41 L 581.66,448.59 L 581.55,446.72 L 581.49,445.75 L 581.41,443.56 L 581.36,442.41 L 581.29,439.85 L 581.26,438.52 L 581.19,435.56 L 581.16,434.02 L 581.10,430.63 L 581.00,425.00 L 580.50,395.50 L 577.61,389.24 L 576.64,387.14 L 574.17,383.44 L 572.86,381.67 L 569.78,378.64 L 568.18,377.22 L 564.62,374.91 L 562.79,373.85 L 558.85,372.30 L 556.84,371.62 L 552.65,370.86 L 550.53,370.59 L 546.20,370.67 L 544.02,370.82 L 539.67,371.78 L 533.23,374.24 L 531.85,374.93 L 529.19,376.84 L 527.88,377.88 L 525.42,380.42 L 524.22,381.76 L 522.02,384.85 L 519.13,390.00 L 518.47,391.37 L 517.61,393.65 L 517.42,394.28 L 517.12,395.75 L 516.98,396.55 L 516.77,398.56 L 516.67,399.66 L 516.52,402.49 L 516.48,403.26 L 516.42,405.00 L 516.39,405.91 L 516.33,407.94 L 516.30,409.00 L 516.25,411.36 L 516.22,412.58 L 516.17,415.31 L 516.14,416.72 L 516.09,419.84 L 516.00,425.00 L 515.97,426.94 L 515.91,430.46 L 515.88,432.16 L 515.81,435.25 L 515.78,436.75 L 515.72,439.43 L 515.68,440.73 L 515.61,443.05 L 515.57,444.17 L 515.48,446.15 L 515.44,447.11 L 515.33,448.79 L 515.21,450.41 L 514.90,452.89 L 514.73,454.03 L 514.27,455.75 L 514.02,456.54 L 513.38,457.78 L 513.03,458.36 L 512.16,459.38 L 510.56,460.95 L 510.04,461.44 L 508.99,462.18 L 508.44,462.51 L 507.17,462.99 L 506.49,463.21 L 504.80,463.51 L 501.55,463.82 L 500.76,463.87 L 499.45,463.94 L 498.84,463.97 L 497.82,463.98 L 496.85,463.97 L 495.43,463.64 L 494.75,463.41 L 493.42,462.49 L 493.06,462.21 L 492.26,461.50 L 491.83,461.12 L 490.83,460.18 L 486.50,456.15 L 486.45,451.13 L 486.89,451.96 L 487.41,452.58 L 487.98,453.23 L 488.34,453.62 L 489.11,454.43 L 489.57,454.91 L 493.52,458.19 L 494.96,459.14 L 495.64,459.52 L 496.95,460.20 L 497.50,460.40 L 499.71,461.17 L 500.62,461.45 L 501.48,461.70 L 501.81,461.79 L 502.38,461.92 L 502.52,461.93 L 503.46,461.75 L 504.24,461.42 L 504.69,461.17 L 506.57,459.99 L 507.51,459.25 L 509.32,457.70 L 509.96,456.97 L 510.54,456.26 L 510.72,455.96 L 511.00,455.38 L 511.00,455.16 L 511.37,453.55 L 511.91,452.49 L 512.25,452.15 L 512.57,451.45 L 512.77,450.62 L 512.86,450.00 L 513.03,448.63 L 513.11,447.72 L 513.26,445.75 L 513.33,444.53 L 513.47,441.92 L 513.53,440.36 L 513.65,437.06 L 513.70,435.13 L 513.81,431.09 L 513.86,428.77 L 513.95,423.93 L 514.00,421.20 L 514.50,391.50 L 517.42,386.23 L 521.21,380.56 L 524.09,377.32 L 525.70,375.97 L 529.04,373.46 L 530.88,372.48 L 534.67,370.70 L 536.73,370.08 L 542.60,368.65 L 546.19,368.14 L 547.94,368.10 M 249.72,459.17 L 250.68,460.21 L 252.68,462.15 L 251.63,461.28 L 250.93,460.65 L 249.85,459.45 L 249.35,458.84 L 248.61,457.58 L 248.46,457.20 M 215.55,341.46 L 216.46,341.59 L 218.08,342.00 L 218.87,342.23 L 220.34,342.93 L 221.06,343.32 L 222.47,344.42 L 223.18,345.04 L 224.63,346.67 L 225.37,347.56 L 226.96,349.83 L 227.78,351.06 L 229.61,354.10 L 230.56,355.73 L 232.72,359.66 L 233.29,360.70 L 234.51,362.97 L 236.46,366.67 L 238.28,370.14 L 241.56,376.41 L 243.15,379.43 L 245.99,384.85 L 247.36,387.46 L 249.80,392.08 L 250.97,394.29 L 253.04,398.15 L 254.03,400.00 L 255.77,403.16 L 256.61,404.66 L 258.06,407.17 L 258.75,408.35 L 259.95,410.26 L 260.52,411.14 L 261.50,412.50 L 261.97,413.11 L 262.77,413.97 L 263.16,414.33 L 263.82,414.73 L 264.14,414.88 L 264.70,414.87 L 264.97,414.82 L 265.39,414.52 L 264.74,415.62 L 264.42,416.10 L 263.82,416.99 L 263.55,417.34 L 263.04,417.96 L 262.80,418.20 L 261.35,419.49 L 260.99,419.75 L 260.86,419.81 L 260.66,419.88 L 260.63,419.83 L 260.36,419.27 L 260.01,418.51 L 259.77,417.98 L 259.26,416.84 L 258.96,416.16 L 258.34,414.76 L 258.01,414.00 L 255.93,409.66 L 255.28,408.44 L 255.00,407.98 L 254.49,407.15 L 254.31,406.94 L 253.72,406.06 L 253.28,405.27 L 253.06,404.82 L 252.19,402.88 L 251.87,401.94 L 250.81,399.20 L 250.46,398.43 L 250.31,398.14 L 250.02,397.60 L 249.91,397.46 L 249.64,397.05 L 249.37,396.59 L 249.19,396.27 L 248.36,394.80 L 247.82,393.80 L 246.66,391.65 L 246.00,390.41 L 244.64,387.83 L 243.92,386.46 L 241.76,382.43 L 240.35,379.91 L 239.72,378.82 L 238.49,376.78 L 238.01,376.02 L 237.54,375.32 L 237.35,375.05 L 237.00,374.58 L 236.87,374.44 L 235.55,372.74 L 235.00,371.77 L 235.00,371.55 L 234.67,370.55 L 234.15,369.29 L 233.77,368.44 L 232.95,366.59 L 232.45,365.52 L 231.40,363.30 L 230.83,362.11 L 226.89,355.20 L 225.46,353.09 L 224.72,352.12 L 223.25,350.25 L 222.52,349.42 L 221.06,347.84 L 220.35,347.18 L 218.95,345.94 L 218.30,345.47 L 217.01,344.64 L 216.43,344.39 L 215.31,344.01 L 214.83,344.02 L 212.48,344.34 L 210.51,344.82 L 209.47,345.14 L 207.41,345.83 L 206.50,346.21 L 204.79,346.97 L 204.23,347.33 L 202.79,348.72 L 201.99,349.97 L 201.67,350.72 L 201.10,352.29 L 200.90,353.15 L 200.57,354.91 L 200.50,355.82 L 200.41,357.65 L 200.47,358.56 L 200.64,360.34 L 200.83,361.18 L 201.27,362.80 L 201.60,363.50 L 202.32,364.83 L 202.79,365.35 L 204.37,367.75 L 205.24,369.68 L 205.43,370.50 L 205.93,371.96 L 206.46,373.10 L 206.78,373.70 L 208.26,376.18 L 209.06,377.19 L 211.14,380.23 L 211.62,381.13 L 211.77,381.49 L 212.00,382.16 L 212.00,382.36 L 212.20,383.31 L 212.52,384.25 L 212.75,384.82 L 213.85,387.34 L 214.55,388.67 L 216.84,392.99 L 218.29,395.69 L 218.97,396.93 L 220.30,399.36 L 220.92,400.46 L 222.12,402.59 L 222.67,403.54 L 223.72,405.36 L 224.19,406.14 L 225.09,407.62 L 225.47,408.23 L 226.20,409.35 L 226.50,409.77 L 227.05,410.51 L 227.25,410.73 L 228.49,412.45 L 229.00,413.53 L 229.00,413.86 L 229.21,414.80 L 229.54,415.73 L 229.79,416.31 L 230.94,418.89 L 231.69,420.35 L 233.25,423.33 L 234.03,424.66 L 234.80,425.94 L 235.16,426.49 L 235.84,427.51 L 236.14,427.88 L 237.45,430.07 L 238.00,431.51 L 238.00,431.98 L 238.24,432.98 L 238.61,433.88 L 238.88,434.41 L 240.17,436.70 L 241.00,437.84 L 243.12,441.02 L 243.61,441.88 L 243.76,442.19 L 244.00,442.74 L 244.00,442.86 L 244.16,443.40 L 244.42,443.93 L 244.61,444.25 L 245.50,445.64 L 246.07,446.36 L 247.44,448.83 L 247.70,450.36 L 247.50,451.01 L 247.28,453.95 L 247.32,454.10 L 246.57,452.38 L 246.36,451.93 L 245.93,451.20 L 245.36,450.50 L 245.22,450.38 L 244.72,449.71 L 244.43,449.30 L 243.64,448.04 L 243.21,447.33 L 242.11,445.43 L 241.52,444.41 L 240.10,441.86 L 239.35,440.50 L 237.59,437.27 L 236.66,435.57 L 234.55,431.63 L 233.44,429.57 L 230.96,424.88 L 226.80,417.00 L 225.29,414.14 L 222.50,408.83 L 221.14,406.24 L 218.64,401.47 L 217.42,399.14 L 215.18,394.87 L 214.10,392.79 L 212.12,388.99 L 211.16,387.15 L 209.42,383.79 L 208.58,382.17 L 207.06,379.22 L 206.33,377.80 L 205.03,375.24 L 204.40,374.00 L 203.29,371.79 L 202.76,370.73 L 201.83,368.84 L 201.39,367.94 L 200.63,366.35 L 200.26,365.59 L 199.65,364.26 L 199.36,363.63 L 198.89,362.54 L 198.44,361.50 L 197.90,360.00 L 197.48,358.38 L 197.30,357.21 L 197.44,354.90 L 197.59,353.76 L 198.31,351.57 L 198.74,350.50 L 199.97,348.51 L 200.64,347.55 L 202.28,345.85 L 203.15,345.03 L 205.12,343.69 L 206.14,343.07 L 208.37,342.16 L 209.50,341.76 L 211.89,341.37 M 551.80,339.95 L 557.39,340.34 L 558.73,340.46 L 561.17,340.82 L 564.40,341.49 L 567.00,342.18 L 572.02,344.06 L 574.50,345.08 L 579.22,347.58 L 581.54,348.90 L 585.90,351.97 L 588.04,353.57 L 592.01,357.16 L 593.94,359.02 L 597.45,363.09 L 599.15,365.17 L 602.16,369.67 L 603.60,371.96 L 606.06,376.83 L 609.08,384.50 L 609.60,386.12 L 610.32,389.11 L 610.48,389.91 L 610.74,391.73 L 610.86,392.69 L 611.05,395.00 L 611.14,396.23 L 611.29,399.25 L 611.36,400.87 L 611.47,404.82 L 611.50,405.88 L 611.55,408.20 L 611.57,409.41 L 611.62,412.04 L 611.65,413.40 L 611.69,416.37 L 611.72,417.86 L 611.66,417.31 L 611.60,416.99 L 611.48,416.41 L 611.41,416.25 L 611.25,416.00 L 611.17,416.00 L 610.70,415.23 L 610.41,413.99 L 610.28,413.05 L 610.02,410.97 L 609.91,409.66 L 609.71,406.87 L 609.64,405.25 L 609.36,399.93 L 609.17,396.86 L 609.07,395.54 L 608.85,393.05 L 608.73,391.99 L 608.48,390.01 L 608.33,389.19 L 608.04,387.66 L 607.87,387.05 L 607.52,385.91 L 607.32,385.48 L 606.90,384.68 L 606.67,384.39 L 606.17,383.88 L 605.89,383.70 L 604.46,381.92 L 604.19,381.08 L 604.11,380.57 L 604.00,379.50 L 604.00,378.88 L 603.55,375.91 L 603.25,375.07 L 603.06,374.74 L 602.66,374.13 L 602.43,373.95 L 600.91,372.22 L 599.84,370.66 L 599.45,369.91 L 598.45,368.25 L 597.59,367.03 L 597.08,366.37 L 594.85,363.68 L 593.56,362.31 L 590.89,359.61 L 589.53,358.42 L 586.86,356.17 L 585.67,355.38 L 581.91,352.68 L 580.68,351.73 L 580.13,351.29 L 579.11,350.44 L 578.73,350.09 L 577.32,349.02 L 576.16,348.30 L 575.53,347.96 L 572.89,346.70 L 571.73,346.36 L 569.65,345.76 L 568.01,345.29 L 567.14,345.04 L 563.54,344.00 L 562.03,343.57 L 557.93,342.71 L 554.83,342.33 L 553.15,342.24 L 549.74,342.10 L 547.98,342.12 L 544.45,342.22 L 542.70,342.35 L 539.22,342.67 L 537.57,342.90 L 534.34,343.42 L 532.87,343.75 L 530.07,344.46 L 528.89,344.88 L 526.70,345.76 L 525.90,346.26 L 523.47,347.50 L 521.69,348.20 L 521.00,348.36 L 520.00,348.75 L 519.17,349.18 L 518.69,349.47 L 516.61,350.83 L 515.38,351.75 L 512.83,353.71 L 511.47,354.83 L 508.72,357.15 L 507.36,358.36 L 504.68,360.80 L 503.46,361.98 L 501.11,364.30 L 500.16,365.33 L 498.43,367.29 L 497.88,368.05 L 497.40,368.77 L 497.25,369.06 L 497.02,369.59 L 497.02,369.77 L 496.70,370.93 L 496.20,372.27 L 495.83,373.15 L 495.03,375.04 L 494.55,376.12 L 493.55,378.34 L 493.00,379.50 L 491.45,382.96 L 490.54,385.17 L 490.17,386.14 L 489.52,387.98 L 489.31,388.68 L 488.99,389.92 L 488.99,390.23 L 488.55,392.67 L 487.91,394.56 L 487.51,395.34 L 486.60,397.95 L 486.66,399.37 L 487.01,400.02 L 487.26,400.96 L 487.41,401.98 L 487.48,402.68 L 487.60,404.17 L 487.66,405.07 L 487.76,406.96 L 487.80,408.02 L 487.94,412.60 L 487.97,415.19 L 488.02,420.54 L 488.01,423.31 L 487.96,428.84 L 487.91,431.48 L 487.77,436.62 L 487.67,438.84 L 487.57,440.99 L 487.51,441.95 L 487.38,443.76 L 487.31,444.51 L 487.16,445.92 L 487.08,446.44 L 486.91,447.36 L 486.82,447.61 L 486.43,448.92 L 486.21,424.51 L 486.19,422.34 L 486.16,418.36 L 486.15,416.43 L 486.13,412.90 L 486.13,411.18 L 486.13,408.05 L 486.14,406.52 L 486.17,403.75 L 486.19,402.41 L 486.26,399.96 L 486.29,398.77 L 486.39,396.60 L 486.49,394.50 L 486.83,390.98 L 487.02,389.31 L 487.54,386.43 L 487.83,385.04 L 488.59,382.48 L 489.00,381.21 L 490.02,378.65 L 491.89,374.50 L 492.77,372.62 L 495.00,368.93 L 496.19,367.09 L 498.96,363.53 L 500.41,361.77 L 503.63,358.43 L 505.28,356.79 L 508.85,353.74 L 510.67,352.26 L 514.49,349.59 L 516.42,348.30 L 520.40,346.08 L 522.40,345.03 L 526.44,343.34 L 532.47,341.47 L 533.57,341.22 L 536.04,340.80 L 537.32,340.61 L 540.08,340.33 L 542.88,340.07 L 548.83,339.95 M 404.81,366.94 L 406.33,367.78 L 407.69,368.36 L 408.47,368.64 L 411.85,369.71 L 413.50,370.04 L 417.84,371.30 L 420.58,372.55 L 421.94,373.41 L 424.67,375.32 L 426.10,376.56 L 429.00,379.23 L 430.57,380.90 L 432.96,384.06 L 434.34,386.54 L 434.92,387.92 L 435.99,390.77 L 436.41,392.29 L 437.17,395.40 L 437.42,397.02 L 437.83,400.28 L 437.91,401.92 L 437.96,405.21 L 437.85,406.83 L 437.53,410.04 L 437.23,411.57 L 436.52,414.58 L 436.01,415.97 L 434.84,418.58 L 433.83,420.36 L 433.23,421.25 L 430.58,424.80 L 428.98,426.48 L 425.60,429.73 L 423.75,431.13 L 419.98,433.74 L 418.06,434.69 L 414.85,436.02 L 412.99,436.53 L 409.17,437.44 L 407.33,437.70 L 405.52,437.91 L 404.69,437.96 L 403.09,438.03 L 402.40,437.99 L 401.10,437.88 L 400.61,437.76 L 399.74,437.46 L 399.50,437.24 L 398.67,436.79 L 397.74,436.43 L 397.15,436.24 L 394.43,435.45 L 392.89,435.12 L 388.94,434.03 L 386.62,433.05 L 385.42,432.32 L 384.21,431.54 L 383.56,431.07 L 382.22,430.07 L 381.49,429.47 L 379.96,428.20 L 379.10,427.45 L 377.31,425.88 L 376.29,424.96 L 371.26,420.43 L 371.55,407.73 L 371.65,404.00 L 371.69,402.94 L 371.68,404.84 L 371.69,406.13 L 371.78,408.53 L 371.83,409.68 L 372.00,411.65 L 372.10,412.56 L 372.33,413.87 L 372.71,414.86 L 372.99,415.03 L 373.77,416.00 L 374.93,417.84 L 375.42,418.76 L 377.06,420.99 L 377.95,422.13 L 380.12,424.49 L 381.24,425.65 L 383.57,427.76 L 386.83,430.21 L 387.87,430.85 L 390.12,431.92 L 391.27,432.42 L 393.71,433.20 L 394.95,433.56 L 397.52,434.06 L 398.81,434.27 L 401.46,434.48 L 402.79,434.55 L 405.47,434.47 L 406.81,434.39 L 409.45,434.01 L 410.76,433.78 L 413.33,433.11 L 414.59,432.73 L 417.01,431.76 L 418.25,431.21 L 420.55,429.90 L 421.67,429.21 L 423.72,427.64 L 424.72,426.83 L 426.52,425.03 L 427.40,424.11 L 428.95,422.12 L 429.69,421.10 L 430.99,418.94 L 431.60,417.85 L 432.63,415.55 L 433.11,414.40 L 433.87,412.00 L 434.22,410.79 L 434.70,408.33 L 434.91,407.09 L 435.12,404.58 L 435.18,403.33 L 435.10,400.81 L 435.03,399.55 L 434.66,397.06 L 434.44,395.82 L 433.77,393.37 L 433.40,392.16 L 432.44,389.80 L 431.92,388.64 L 430.65,386.40 L 429.97,385.29 L 428.39,383.19 L 425.66,380.24 L 424.77,379.40 L 423.14,377.95 L 422.35,377.26 L 420.85,376.08 L 419.38,374.97 L 416.52,373.44 L 415.06,372.77 L 411.80,371.91 L 410.93,371.73 L 409.01,371.44 L 405.80,371.10 L 404.87,371.02 L 403.30,370.90 L 402.56,370.85 L 401.28,370.80 L 400.06,370.77 L 398.09,370.98 L 397.13,371.14 L 395.10,371.83 L 394.56,372.04 L 393.32,372.58 L 391.37,373.46 L 396.25,370.75 L 397.79,369.69 L 398.40,369.20 L 399.49,368.25 L 399.81,367.86 L 402.12,365.03 M 280.25,385.18 L 279.43,386.77 L 277.83,389.89 L 277.12,391.30 L 275.79,393.97 L 275.29,395.00 L 272.53,400.66 L 272.49,400.74 L 273.62,398.41 L 275.28,395.00 L 275.78,393.97 L 277.12,391.30 L 277.83,389.89 L 279.43,386.77 L 280.25,385.18 L 281.92,381.97 L 284.29,377.50 L 281.92,381.97 M 380.91,380.40 L 379.51,381.76 L 377.14,384.82 L 374.18,389.98 L 373.74,390.93 L 373.75,390.91 L 374.28,389.77 L 377.18,384.74 L 379.52,381.74 L 380.91,380.40 L 383.82,377.85 L 383.82,377.84 M 360.84,356.63 L 362.48,355.11 L 362.49,355.10 M 375.19,346.41 L 371.44,348.53 L 368.88,350.20 L 367.60,351.13 L 363.04,354.67 L 367.57,351.15 L 368.84,350.22 L 371.39,348.56 L 375.12,346.44 L 376.84,345.58 L 376.84,345.58 M 414.98,201.11 L 420.15,201.49 L 421.39,201.61 L 423.69,201.92 L 426.75,202.50 L 428.30,202.87 L 431.54,203.91 L 433.17,204.48 L 436.46,205.86 L 438.10,206.59 L 441.33,208.23 L 442.93,209.08 L 445.97,210.91 L 447.45,211.84 L 450.17,213.77 L 451.48,214.74 L 453.76,216.70 L 454.84,217.68 L 456.55,219.58 L 458.34,222.29 L 458.94,223.56 L 459.65,226.13 L 459.93,227.41 L 460.04,229.92 L 460.02,231.16 L 459.99,231.30 L 459.99,230.35 L 459.73,229.71 L 459.04,228.45 L 458.43,227.94 L 457.67,227.14 L 457.07,226.38 L 456.76,225.92 L 455.47,223.93 L 454.95,222.90 L 454.09,221.60 L 453.27,220.61 L 452.77,220.07 L 450.56,217.86 L 449.34,216.81 L 446.87,214.81 L 445.82,214.12 L 444.81,213.49 L 444.39,213.30 L 443.63,213.00 L 443.38,213.00 L 442.91,212.80 L 442.37,212.47 L 442.02,212.24 L 440.40,211.12 L 439.47,210.41 L 437.34,209.07 L 435.61,208.23 L 434.61,207.83 L 432.53,207.05 L 431.38,206.70 L 429.02,206.01 L 427.76,205.70 L 422.54,204.59 L 419.78,204.23 L 414.22,203.66 L 411.50,203.63 L 404.72,203.84 L 400.32,204.26 L 398.39,204.57 L 396.51,204.90 L 395.67,205.09 L 394.06,205.47 L 393.39,205.68 L 392.13,206.10 L 391.66,206.33 L 390.82,206.78 L 390.59,207.01 L 389.47,207.71 L 388.57,208.00 L 388.18,208.00 L 387.37,208.16 L 386.68,208.42 L 386.27,208.62 L 384.43,209.60 L 383.31,210.31 L 380.95,211.88 L 379.64,212.83 L 376.95,214.83 L 375.55,215.94 L 369.91,220.57 L 367.40,222.90 L 364.98,225.20 L 363.95,226.27 L 362.04,228.34 L 361.34,229.23 L 359.67,231.84 L 358.47,234.06 L 357.92,235.20 L 356.90,237.47 L 356.55,238.40 L 356.24,239.28 L 356.15,239.64 L 356.00,240.28 L 356.00,240.49 L 355.80,241.58 L 355.48,242.68 L 355.25,243.37 L 354.16,246.44 L 353.46,248.10 L 352.15,251.59 L 351.56,253.74 L 351.37,254.91 L 351.08,257.37 L 351.01,258.91 L 350.95,260.52 L 350.94,261.44 L 350.92,263.36 L 350.92,264.46 L 350.94,267.47 L 350.97,269.22 L 351.01,269.98 L 351.18,272.77 L 351.36,273.89 L 351.77,276.01 L 352.09,277.00 L 352.83,279.00 L 353.35,280.14 L 354.43,282.64 L 355.20,284.52 L 355.58,285.49 L 356.32,287.42 L 356.65,288.33 L 357.28,290.09 L 357.52,290.82 L 358.76,293.88 L 359.87,295.80 L 360.68,296.85 L 361.54,297.93 L 362.05,298.52 L 363.14,299.74 L 363.79,300.42 L 365.15,301.83 L 365.94,302.63 L 367.62,304.30 L 368.59,305.24 L 373.25,309.63 L 376.10,312.12 L 377.45,313.17 L 380.12,315.16 L 381.45,316.00 L 384.11,317.57 L 385.49,318.22 L 388.30,319.45 L 389.81,319.96 L 392.94,320.92 L 394.68,321.32 L 398.28,322.10 L 400.32,322.44 L 404.57,323.10 L 407.00,323.42 L 409.83,323.79 L 411.10,323.96 L 413.52,324.29 L 414.50,324.42 L 416.28,324.67 L 416.84,324.75 L 417.35,324.82 L 417.51,324.85 L 417.76,324.89 L 417.78,324.90 L 418.38,324.78 L 419.22,324.54 L 419.81,324.37 L 421.09,323.98 L 421.84,323.74 L 423.43,323.23 L 424.28,322.95 L 433.69,319.26 L 439.68,316.33 L 442.42,314.70 L 445.11,313.05 L 446.37,312.19 L 448.82,310.47 L 449.94,309.59 L 452.12,307.83 L 453.08,306.94 L 454.93,305.15 L 455.71,304.27 L 458.20,300.96 L 459.38,298.86 L 459.69,297.98 L 459.72,297.88 L 459.73,298.68 L 459.61,300.36 L 458.82,303.29 L 458.57,304.00 L 457.89,305.36 L 457.52,306.03 L 456.59,307.35 L 456.09,308.00 L 454.87,309.32 L 454.22,309.98 L 452.69,311.33 L 451.87,312.01 L 449.99,313.44 L 446.73,315.71 L 445.30,316.68 L 442.16,318.45 L 440.55,319.31 L 437.14,320.85 L 435.41,321.60 L 431.82,322.89 L 430.01,323.51 L 426.34,324.54 L 424.50,325.01 L 420.83,325.74 L 419.00,326.07 L 415.42,326.48 L 413.66,326.64 L 410.27,326.71 L 408.61,326.70 L 405.50,326.40 L 403.20,326.10 L 398.80,325.25 L 396.64,324.78 L 392.50,323.58 L 390.47,322.93 L 386.59,321.38 L 384.67,320.56 L 381.02,318.64 L 379.23,317.64 L 375.80,315.35 L 374.11,314.16 L 370.88,311.50 L 369.29,310.12 L 366.25,307.07 L 361.88,302.04 L 360.80,300.69 L 358.85,297.89 L 357.91,296.48 L 356.23,293.55 L 355.43,292.08 L 354.02,289.02 L 353.35,287.48 L 352.22,284.29 L 351.68,282.67 L 350.82,279.34 L 350.42,277.66 L 349.82,274.17 L 349.55,272.41 L 349.22,268.78 L 349.01,263.14 L 349.01,260.91 L 349.27,256.65 L 349.44,254.55 L 350.06,250.56 L 350.41,248.59 L 351.41,244.81 L 351.95,242.95 L 353.34,239.37 L 354.09,237.60 L 355.88,234.17 L 356.84,232.47 L 359.05,229.16 L 360.22,227.51 L 362.88,224.28 L 367.37,219.49 L 369.60,217.30 L 374.47,213.36 L 376.96,211.48 L 382.15,208.28 L 384.77,206.78 L 390.05,204.45 L 391.37,203.93 L 393.97,203.07 L 397.80,202.09 L 398.73,201.90 L 400.88,201.60 L 401.99,201.46 L 404.42,201.26 L 406.91,201.09 L 412.29,201.07 M 412.95,229.28 L 414.80,229.34 L 415.59,229.46 L 421.38,230.82 L 425.48,232.21 L 427.46,233.07 L 431.33,234.86 L 432.99,235.83 L 434.59,236.80 L 435.29,237.29 L 436.61,238.27 L 437.15,238.75 L 439.12,240.37 L 440.33,241.15 L 440.92,241.42 L 442.10,241.87 L 442.73,241.99 L 444.04,242.17 L 444.79,242.18 L 448.45,242.02 L 450.33,241.67 L 451.04,241.35 L 452.32,240.59 L 452.80,240.03 L 453.67,238.79 L 454.02,237.95 L 455.58,235.65 L 456.94,234.55 L 457.63,234.38 L 459.28,233.36 L 459.74,232.58 L 459.56,233.55 L 459.26,234.71 L 458.27,236.88 L 457.72,237.93 L 456.25,239.79 L 455.46,240.68 L 453.56,242.16 L 452.56,242.85 L 450.28,243.86 L 446.45,244.76 L 445.23,244.90 L 442.84,244.71 L 441.64,244.52 L 439.10,243.62 L 437.78,243.06 L 434.83,241.33 L 434.06,240.84 L 432.39,239.69 L 429.67,237.68 L 428.55,236.83 L 426.06,235.41 L 424.78,234.75 L 422.02,233.71 L 420.61,233.24 L 417.67,232.59 L 416.18,232.31 L 413.13,232.05 L 411.61,231.97 L 408.54,232.11 L 407.02,232.23 L 404.02,232.77 L 402.53,233.09 L 399.68,234.03 L 395.67,235.90 L 394.36,236.65 L 391.99,238.29 L 390.85,239.14 L 388.82,240.98 L 387.84,241.93 L 386.13,243.97 L 385.32,245.01 L 383.94,247.26 L 383.29,248.40 L 382.23,250.85 L 381.74,252.10 L 381.01,254.75 L 380.69,256.11 L 380.28,258.97 L 380.03,263.50 L 380.03,265.85 L 380.50,270.00 L 380.81,272.01 L 381.98,275.62 L 382.66,277.37 L 384.59,280.61 L 388.43,285.26 L 389.97,286.83 L 393.29,289.41 L 394.99,290.60 L 398.59,292.43 L 400.41,293.24 L 404.21,294.32 L 406.13,294.77 L 410.06,295.09 L 412.04,295.16 L 416.04,294.73 L 418.04,294.42 L 422.04,293.23 L 424.04,292.54 L 427.98,290.60 L 433.73,286.82 L 434.37,286.33 L 435.47,285.50 L 436.00,285.11 L 436.93,284.48 L 437.82,283.89 L 439.36,283.18 L 440.13,282.89 L 441.82,282.62 L 445.09,282.50 L 446.31,282.50 L 448.55,282.79 L 449.63,282.98 L 451.59,283.63 L 452.53,284.00 L 454.20,284.99 L 454.99,285.53 L 456.34,286.86 L 456.97,287.56 L 457.99,289.18 L 458.45,290.04 L 459.12,291.95 L 459.41,292.94 L 459.71,295.12 L 459.71,295.23 L 459.70,295.22 L 459.30,295.00 L 459.01,295.00 L 458.43,294.69 L 457.90,294.20 L 457.58,293.84 L 456.22,292.14 L 455.53,291.05 L 454.18,289.18 L 453.25,288.17 L 452.75,287.77 L 451.72,287.04 L 451.14,286.76 L 449.95,286.25 L 449.27,286.06 L 445.50,285.23 L 443.40,285.03 L 442.53,285.11 L 440.91,285.38 L 440.24,285.69 L 439.00,286.44 L 438.50,287.00 L 436.85,288.41 L 435.77,289.00 L 435.42,289.00 L 434.56,289.28 L 433.68,289.73 L 433.14,290.06 L 430.73,291.61 L 429.43,292.60 L 426.79,294.44 L 425.13,295.35 L 424.25,295.69 L 422.43,296.31 L 421.35,296.55 L 419.05,297.00 L 417.61,297.20 L 411.24,297.78 L 407.32,297.79 L 405.53,297.62 L 402.09,297.16 L 400.56,296.75 L 397.63,295.82 L 396.38,295.17 L 392.29,292.72 L 389.78,290.87 L 388.65,289.84 L 386.46,287.73 L 385.49,286.58 L 383.63,284.24 L 382.84,282.99 L 381.34,280.45 L 380.73,279.12 L 379.62,276.42 L 379.21,275.02 L 378.49,272.19 L 378.29,270.75 L 378.00,267.83 L 378.02,266.35 L 378.06,260.67 L 378.06,258.98 L 378.05,258.29 L 378.04,257.04 L 378.03,256.64 L 378.19,254.97 L 378.48,253.66 L 378.69,252.94 L 379.75,249.93 L 380.45,248.44 L 381.93,245.52 L 382.69,244.39 L 383.45,243.34 L 383.82,242.94 L 384.52,242.26 L 384.84,242.09 L 386.46,240.73 L 387.33,239.55 L 387.50,239.00 L 388.28,237.59 L 388.95,237.00 L 389.26,237.00 L 389.90,236.82 L 390.48,236.53 L 390.81,236.32 L 392.24,235.32 L 392.95,234.69 L 394.69,233.49 L 396.20,232.73 L 397.10,232.37 L 398.98,231.67 L 400.01,231.36 L 402.13,230.76 L 403.23,230.50 L 407.74,229.61 L 409.88,229.42 L 411.98,229.28 M 550.63,270.47 L 550.92,271.18 L 550.82,271.67 L 550.53,272.60 L 550.27,272.94 L 549.70,273.52 L 549.37,273.66 L 548.69,273.83 L 548.37,273.74 L 547.76,273.42 L 547.53,273.05 L 547.23,271.98 L 547.35,271.29 L 547.56,270.99 L 548.04,270.45 L 548.40,270.28 L 549.17,270.00 L 549.63,270.00 Z" fill="rgba(87,15,188,1)"/>
<path d="M 359.16,497.67 L 358.95,497.69 L 359.19,497.66 M 360.42,497.34 L 360.24,497.39 L 360.66,497.27 M 367.18,493.54 L 365.97,494.54 L 363.76,496.01 L 362.83,496.57 L 360.69,497.26 L 363.10,496.38 L 364.05,495.75 L 366.33,494.17 L 367.54,493.14 M 371.00,469.04 L 371.00,470.33 L 370.99,472.69 L 370.98,473.85 L 370.96,475.95 L 370.93,478.00 L 370.79,481.38 L 370.71,482.97 L 370.45,485.57 L 370.30,486.78 L 369.86,488.74 L 369.61,489.66 L 368.95,491.14 L 368.59,491.83 L 367.68,492.99 L 367.57,493.11 L 368.04,492.47 L 368.92,491.02 L 369.26,489.98 L 369.57,488.88 L 369.71,488.22 L 369.97,486.83 L 370.08,486.01 L 370.28,484.27 L 370.37,483.25 L 370.53,481.10 L 370.59,479.86 L 370.71,477.25 L 370.76,475.75 L 370.85,472.63 L 370.89,470.85 L 370.96,467.15 L 370.99,465.06 L 371.00,464.43 M 254.15,463.25 L 255.98,464.55 L 256.78,465.04 L 258.31,465.90 L 259.01,466.19 L 259.73,466.45 L 259.01,466.19 L 258.30,465.90 L 256.77,465.04 L 255.97,464.55 L 254.14,463.25 L 252.80,462.27 L 252.76,462.23 M 408.28,342.03 L 412.24,342.31 L 413.18,342.40 L 414.86,342.66 L 416.93,343.13 L 419.80,344.04 L 425.19,345.99 L 426.46,346.48 L 428.77,347.42 L 431.76,348.75 L 432.03,348.88 L 432.73,349.32 L 433.10,349.56 L 433.98,350.20 L 434.91,350.89 L 437.18,352.76 L 438.36,353.75 L 440.96,356.05 L 442.28,357.24 L 444.96,359.74 L 446.28,361.00 L 448.79,363.47 L 450.00,364.67 L 452.09,366.87 L 453.05,367.91 L 454.47,369.59 L 454.77,369.97 L 455.20,370.59 L 455.56,371.29 L 455.75,371.89 L 456.48,373.36 L 457.75,375.22 L 457.96,375.46 L 458.40,376.19 L 458.61,376.59 L 459.04,377.55 L 460.03,380.72 L 460.14,381.24 L 460.46,382.65 L 460.63,383.39 L 461.05,385.09 L 462.40,390.30 L 462.77,391.63 L 463.30,394.51 L 463.53,395.98 L 463.80,399.07 L 464.01,402.19 L 463.67,408.65 L 463.52,410.25 L 463.06,413.39 L 462.80,414.94 L 462.11,417.91 L 461.73,419.37 L 460.82,422.06 L 459.22,425.71 L 458.61,426.87 L 457.65,428.98 L 457.45,429.45 L 457.17,430.20 L 457.00,430.92 L 457.00,431.10 L 456.80,431.68 L 456.67,432.01 L 456.25,432.84 L 455.77,433.72 L 454.37,435.90 L 453.62,437.01 L 451.93,439.24 L 449.52,442.01 L 448.83,442.70 L 447.74,444.15 L 447.51,444.49 L 447.20,445.08 L 447.00,445.76 L 447.00,446.10 L 446.56,446.64 L 445.51,447.00 L 445.30,447.00 L 444.72,447.24 L 444.40,447.39 L 443.67,447.88 L 441.34,450.00 L 440.61,450.82 L 439.18,452.12 L 438.85,452.39 L 438.31,452.76 L 437.73,453.00 L 437.60,453.00 L 437.13,453.20 L 436.87,453.32 L 436.19,453.73 L 433.82,455.50 L 433.00,456.19 L 431.03,457.27 L 430.55,457.49 L 429.65,457.80 L 428.50,458.00 L 427.86,458.00 L 426.02,458.41 L 423.33,459.40 L 421.94,460.09 L 419.26,461.12 L 417.91,461.59 L 415.05,462.23 L 413.56,462.51 L 410.16,462.82 L 409.26,462.89 L 407.29,462.96 L 404.06,463.00 L 400.93,463.00 L 394.72,462.29 L 393.19,462.06 L 390.23,461.45 L 388.78,461.12 L 386.01,460.33 L 384.66,459.91 L 382.15,458.95 L 380.94,458.46 L 378.75,457.36 L 377.71,456.79 L 375.92,455.58 L 373.75,453.64 L 371.13,450.72 L 371.14,450.47 L 371.18,444.69 L 371.21,441.50 L 371.38,420.53 L 376.29,424.96 L 377.31,425.88 L 379.10,427.45 L 379.96,428.20 L 381.49,429.47 L 382.22,430.07 L 383.56,431.07 L 384.21,431.54 L 385.42,432.32 L 386.62,433.05 L 388.94,434.03 L 392.89,435.12 L 394.43,435.45 L 397.15,436.24 L 397.74,436.43 L 398.67,436.79 L 399.50,437.24 L 399.74,437.46 L 400.61,437.76 L 401.10,437.88 L 402.40,437.99 L 403.09,438.03 L 404.69,437.96 L 405.52,437.91 L 407.33,437.70 L 409.17,437.44 L 412.99,436.53 L 414.85,436.02 L 418.06,434.69 L 419.98,433.74 L 423.75,431.13 L 425.60,429.73 L 428.98,426.48 L 430.58,424.80 L 433.23,421.25 L 433.83,420.36 L 434.84,418.58 L 436.01,415.97 L 436.52,414.58 L 437.23,411.57 L 437.53,410.04 L 437.85,406.83 L 437.96,405.21 L 437.91,401.92 L 437.83,400.28 L 437.42,397.02 L 437.17,395.40 L 436.41,392.29 L 435.99,390.77 L 434.92,387.92 L 434.34,386.54 L 432.96,384.06 L 430.57,380.90 L 429.00,379.23 L 426.10,376.56 L 424.67,375.32 L 421.94,373.41 L 420.58,372.55 L 417.84,371.30 L 413.50,370.04 L 411.85,369.71 L 408.47,368.64 L 407.69,368.36 L 406.33,367.78 L 404.81,366.94 L 402.12,365.03 L 400.74,366.73 L 401.21,365.94 L 401.47,365.27 L 401.94,363.88 L 402.09,363.08 L 402.35,361.42 L 402.41,360.46 L 402.50,358.47 L 402.50,357.32 L 402.48,355.10 L 402.45,353.86 L 402.42,353.33 L 402.24,351.47 L 402.04,350.78 L 401.56,349.51 L 401.16,348.93 L 400.24,347.78 L 399.57,347.08 L 396.90,344.73 L 396.01,344.10 L 395.61,343.87 L 394.86,343.47 L 394.57,343.38 L 394.38,343.29 L 395.26,343.51 L 395.97,343.64 L 397.25,343.62 L 398.45,343.08 L 398.56,342.90 L 399.31,342.61 L 399.76,342.48 L 401.07,342.28 L 401.78,342.19 L 403.48,342.09 L 404.37,342.04 L 406.31,342.03 M 553.15,342.24 L 554.83,342.33 L 557.93,342.71 L 562.03,343.57 L 563.54,344.00 L 567.14,345.04 L 568.01,345.29 L 569.65,345.76 L 571.73,346.36 L 572.89,346.70 L 575.53,347.96 L 576.16,348.30 L 577.32,349.02 L 578.73,350.09 L 579.11,350.44 L 580.13,351.29 L 580.68,351.73 L 581.91,352.68 L 585.67,355.38 L 586.86,356.17 L 589.53,358.42 L 590.89,359.61 L 593.56,362.31 L 594.85,363.68 L 597.08,366.37 L 597.59,367.03 L 598.45,368.25 L 599.45,369.91 L 599.84,370.66 L 600.91,372.22 L 602.43,373.95 L 602.66,374.13 L 603.06,374.74 L 603.25,375.07 L 603.55,375.91 L 604.00,378.88 L 604.00,379.50 L 604.11,380.57 L 604.19,381.08 L 604.46,381.92 L 605.89,383.70 L 606.17,383.88 L 606.67,384.39 L 606.90,384.68 L 607.32,385.48 L 607.52,385.91 L 607.87,387.05 L 608.04,387.66 L 608.33,389.19 L 608.48,390.01 L 608.73,391.99 L 608.85,393.05 L 609.07,395.54 L 609.17,396.86 L 609.36,399.93 L 609.64,405.25 L 609.71,406.87 L 609.91,409.66 L 610.02,410.97 L 610.28,413.05 L 610.41,413.99 L 610.70,415.23 L 611.17,416.00 L 611.25,416.00 L 611.41,416.25 L 611.48,416.41 L 611.60,416.99 L 611.66,417.31 L 611.75,418.22 L 611.80,418.71 L 611.86,419.94 L 611.89,420.60 L 611.92,422.16 L 611.94,422.98 L 611.94,424.86 L 611.94,425.85 L 611.92,428.06 L 611.85,431.75 L 611.81,433.55 L 611.73,436.58 L 611.69,438.01 L 611.60,440.38 L 611.55,441.49 L 611.43,443.31 L 611.37,444.15 L 611.20,445.53 L 611.11,446.17 L 610.89,447.21 L 610.77,447.69 L 610.48,448.51 L 609.25,450.65 L 608.63,451.52 L 607.66,453.36 L 607.46,453.79 L 607.18,454.54 L 607.00,455.42 L 607.00,455.64 L 606.74,456.20 L 606.58,456.50 L 606.05,457.15 L 603.75,459.05 L 603.10,459.45 L 601.92,460.02 L 601.34,460.26 L 600.15,460.54 L 599.53,460.64 L 598.12,460.66 L 595.50,460.44 L 594.01,460.25 L 591.52,459.78 L 590.35,459.51 L 588.45,458.69 L 587.57,458.22 L 586.18,456.84 L 585.54,456.05 L 584.58,453.86 L 584.36,453.25 L 583.99,451.84 L 583.81,451.10 L 583.52,449.41 L 583.38,448.53 L 583.16,446.53 L 583.05,445.48 L 582.88,443.14 L 582.80,441.93 L 582.68,439.22 L 582.62,437.82 L 582.54,434.71 L 582.50,433.11 L 582.44,429.57 L 582.36,423.76 L 582.34,421.84 L 582.28,418.21 L 582.25,416.43 L 582.17,413.11 L 582.13,411.50 L 582.03,408.55 L 581.98,407.13 L 581.87,404.59 L 581.81,403.38 L 581.69,401.29 L 581.62,400.31 L 581.49,398.73 L 581.42,398.01 L 581.27,396.97 L 581.04,396.08 L 580.76,395.54 L 580.30,393.73 L 579.99,390.82 L 579.99,390.23 L 579.74,388.99 L 579.58,388.35 L 578.98,386.96 L 578.64,386.23 L 577.66,384.62 L 575.74,381.88 L 574.99,380.89 L 573.61,379.15 L 572.93,378.32 L 571.65,376.88 L 570.38,375.51 L 567.93,373.47 L 566.68,372.55 L 563.97,371.21 L 559.17,369.62 L 557.06,369.08 L 553.29,368.43 L 551.45,368.18 L 547.94,368.10 L 546.19,368.14 L 542.60,368.65 L 536.73,370.08 L 534.67,370.70 L 530.88,372.48 L 529.04,373.46 L 525.70,375.97 L 524.09,377.32 L 521.21,380.56 L 517.42,386.23 L 514.50,391.50 L 514.00,421.20 L 513.95,423.93 L 513.86,428.77 L 513.81,431.09 L 513.70,435.13 L 513.65,437.06 L 513.53,440.36 L 513.47,441.92 L 513.33,444.53 L 513.26,445.75 L 513.11,447.72 L 513.03,448.63 L 512.86,450.00 L 512.77,450.62 L 512.57,451.45 L 512.25,452.15 L 511.91,452.49 L 511.37,453.55 L 511.00,455.16 L 511.00,455.38 L 510.72,455.96 L 510.54,456.26 L 509.96,456.97 L 509.32,457.70 L 507.51,459.25 L 506.57,459.99 L 504.69,461.17 L 504.24,461.42 L 503.46,461.75 L 502.52,461.93 L 502.38,461.92 L 501.81,461.79 L 501.48,461.70 L 500.62,461.45 L 499.71,461.17 L 497.50,460.40 L 496.95,460.20 L 495.64,459.52 L 494.96,459.14 L 493.52,458.19 L 489.57,454.91 L 489.11,454.43 L 488.34,453.62 L 487.98,453.23 L 487.41,452.58 L 486.89,451.96 L 486.38,450.98 L 486.20,450.50 L 486.25,449.52 L 486.82,447.61 L 486.91,447.36 L 487.08,446.44 L 487.16,445.92 L 487.31,444.51 L 487.38,443.76 L 487.51,441.95 L 487.57,440.99 L 487.67,438.84 L 487.77,436.62 L 487.91,431.48 L 487.96,428.84 L 488.01,423.31 L 488.02,420.54 L 487.97,415.19 L 487.94,412.60 L 487.80,408.02 L 487.76,406.96 L 487.66,405.07 L 487.60,404.17 L 487.48,402.68 L 487.41,401.98 L 487.26,400.96 L 487.01,400.02 L 486.66,399.37 L 486.60,397.95 L 487.51,395.34 L 487.91,394.56 L 488.55,392.67 L 488.99,390.23 L 488.99,389.92 L 489.31,388.68 L 489.52,387.98 L 490.17,386.14 L 490.54,385.17 L 491.45,382.96 L 493.00,379.50 L 493.55,378.34 L 494.55,376.12 L 495.03,375.04 L 495.83,373.15 L 496.20,372.27 L 496.70,370.93 L 497.02,369.77 L 497.02,369.59 L 497.25,369.06 L 497.40,368.77 L 497.88,368.05 L 498.43,367.29 L 500.16,365.33 L 501.11,364.30 L 503.46,361.98 L 504.68,360.80 L 507.36,358.36 L 508.72,357.15 L 511.47,354.83 L 512.83,353.71 L 515.38,351.75 L 516.61,350.83 L 518.69,349.47 L 519.17,349.18 L 520.00,348.75 L 521.00,348.36 L 521.69,348.20 L 523.47,347.50 L 525.90,346.26 L 526.70,345.76 L 528.89,344.88 L 530.07,344.46 L 532.87,343.75 L 534.34,343.42 L 537.57,342.90 L 539.22,342.67 L 542.70,342.35 L 544.45,342.22 L 547.98,342.12 L 549.74,342.10 M 247.44,453.82 L 247.87,456.05 L 248.38,457.08 L 248.37,457.06 L 247.80,456.01 L 247.28,453.95 L 247.50,451.01 L 247.61,450.66 M 271.06,403.65 L 270.37,405.04 L 269.07,407.67 L 268.51,408.78 L 267.44,410.89 L 266.99,411.75 L 266.14,413.37 L 265.79,414.01 L 265.14,415.18 L 264.89,415.61 L 264.42,416.37 L 264.24,416.61 L 263.94,416.99 L 263.83,417.06 L 263.40,417.57 L 262.98,418.20 L 262.71,418.64 L 262.14,419.61 L 261.81,420.20 L 261.11,421.46 L 260.73,422.18 L 259.09,425.28 L 258.19,427.06 L 256.33,430.74 L 255.39,432.67 L 253.51,436.53 L 252.63,438.39 L 250.94,442.03 L 250.22,443.62 L 249.54,445.17 L 249.24,445.86 L 248.68,447.18 L 248.46,447.74 L 248.05,448.78 L 247.91,449.18 L 247.68,449.90 L 247.65,450.06 L 247.44,448.83 L 246.07,446.36 L 245.50,445.64 L 244.61,444.25 L 244.42,443.93 L 244.16,443.40 L 244.00,442.86 L 244.00,442.74 L 243.76,442.19 L 243.61,441.88 L 243.12,441.02 L 241.00,437.84 L 240.17,436.70 L 238.88,434.41 L 238.61,433.88 L 238.24,432.98 L 238.00,431.98 L 238.00,431.51 L 237.45,430.07 L 236.14,427.88 L 235.84,427.51 L 235.16,426.49 L 234.80,425.94 L 234.03,424.66 L 233.25,423.33 L 231.69,420.35 L 230.94,418.89 L 229.79,416.31 L 229.54,415.73 L 229.21,414.80 L 229.00,413.86 L 229.00,413.53 L 228.49,412.45 L 227.25,410.73 L 227.05,410.51 L 226.50,409.77 L 226.20,409.35 L 225.47,408.23 L 225.09,407.62 L 224.19,406.14 L 223.72,405.36 L 222.67,403.54 L 222.12,402.59 L 220.92,400.46 L 220.30,399.36 L 218.97,396.93 L 218.29,395.69 L 216.84,392.99 L 214.55,388.67 L 213.85,387.34 L 212.75,384.82 L 212.52,384.25 L 212.20,383.31 L 212.00,382.36 L 212.00,382.16 L 211.77,381.49 L 211.62,381.13 L 211.14,380.23 L 209.06,377.19 L 208.26,376.18 L 206.78,373.70 L 206.46,373.10 L 205.93,371.96 L 205.43,370.50 L 205.24,369.68 L 204.37,367.75 L 202.79,365.35 L 202.32,364.83 L 201.60,363.50 L 201.27,362.80 L 200.83,361.18 L 200.64,360.34 L 200.47,358.56 L 200.41,357.65 L 200.50,355.82 L 200.57,354.91 L 200.90,353.15 L 201.10,352.29 L 201.67,350.72 L 201.99,349.97 L 202.79,348.72 L 204.23,347.33 L 204.79,346.97 L 206.50,346.21 L 207.41,345.83 L 209.47,345.14 L 210.51,344.82 L 212.48,344.34 L 214.83,344.02 L 215.31,344.01 L 216.43,344.39 L 217.01,344.64 L 218.30,345.47 L 218.95,345.94 L 220.35,347.18 L 221.06,347.84 L 222.52,349.42 L 223.25,350.25 L 224.72,352.12 L 225.46,353.09 L 226.89,355.20 L 230.83,362.11 L 231.40,363.30 L 232.45,365.52 L 232.95,366.59 L 233.77,368.44 L 234.15,369.29 L 234.67,370.55 L 235.00,371.55 L 235.00,371.77 L 235.55,372.74 L 236.87,374.44 L 237.00,374.58 L 237.35,375.05 L 237.54,375.32 L 238.01,376.02 L 238.49,376.78 L 239.72,378.82 L 240.35,379.91 L 241.76,382.43 L 243.92,386.46 L 244.64,387.83 L 246.00,390.41 L 246.66,391.65 L 247.82,393.80 L 248.36,394.80 L 249.19,396.27 L 249.37,396.59 L 249.64,397.05 L 249.91,397.46 L 250.02,397.60 L 250.31,398.14 L 250.46,398.43 L 250.81,399.20 L 251.87,401.94 L 252.19,402.88 L 253.06,404.82 L 253.28,405.27 L 253.72,406.06 L 254.31,406.94 L 254.49,407.15 L 255.00,407.98 L 255.28,408.44 L 255.93,409.66 L 258.01,414.00 L 258.34,414.76 L 258.96,416.16 L 259.26,416.84 L 259.77,417.98 L 260.01,418.51 L 260.36,419.27 L 260.63,419.83 L 260.66,419.88 L 260.86,419.81 L 260.99,419.75 L 261.35,419.49 L 262.80,418.20 L 263.04,417.96 L 263.55,417.34 L 263.82,416.99 L 264.42,416.10 L 264.74,415.62 L 265.47,414.39 L 265.85,413.72 L 266.74,412.09 L 267.21,411.21 L 268.31,409.10 L 268.88,407.98 L 270.22,405.33 L 270.92,403.93 L 272.53,400.66 L 275.29,395.00 L 272.63,400.46 M 373.75,390.91 L 372.99,392.96 L 372.66,394.00 L 372.21,396.34 L 372.12,396.98 L 371.96,398.43 L 371.89,399.18 L 371.78,400.93 L 371.73,401.86 L 371.65,404.00 L 371.55,407.73 L 371.44,412.24 L 371.58,395.50 L 374.15,390.00 L 374.26,389.81 M 390.93,373.71 L 388.97,374.61 L 385.49,376.73 L 383.89,377.80 L 383.95,377.74 L 385.70,376.58 L 389.35,374.35 L 391.45,373.36 L 392.37,372.91 M 388.16,341.66 L 386.75,341.97 L 385.97,342.18 L 382.62,343.21 L 380.78,343.92 L 377.03,345.48 L 377.07,345.46 L 380.85,343.89 L 382.70,343.17 L 386.03,342.16 L 386.81,341.95 L 388.21,341.65 L 388.55,341.59 M 388.85,341.53 L 388.87,341.53 L 388.99,341.51 M 414.22,203.66 L 419.78,204.23 L 422.54,204.59 L 427.76,205.70 L 429.02,206.01 L 431.38,206.70 L 432.53,207.05 L 434.61,207.83 L 435.61,208.23 L 437.34,209.07 L 439.47,210.41 L 440.40,211.12 L 442.02,212.24 L 442.37,212.47 L 442.91,212.80 L 443.38,213.00 L 443.63,213.00 L 444.39,213.30 L 444.81,213.49 L 445.82,214.12 L 446.87,214.81 L 449.34,216.81 L 450.56,217.86 L 452.77,220.07 L 453.27,220.61 L 454.09,221.60 L 454.95,222.90 L 455.47,223.93 L 456.76,225.92 L 457.07,226.38 L 457.67,227.14 L 458.43,227.94 L 459.04,228.45 L 459.73,229.71 L 459.99,230.35 L 459.99,231.66 L 459.92,232.29 L 459.28,233.36 L 457.63,234.38 L 456.94,234.55 L 455.58,235.65 L 454.02,237.95 L 453.67,238.79 L 452.80,240.03 L 452.32,240.59 L 451.04,241.35 L 450.33,241.67 L 448.45,242.02 L 444.79,242.18 L 444.04,242.17 L 442.73,241.99 L 442.10,241.87 L 440.92,241.42 L 440.33,241.15 L 439.12,240.37 L 437.15,238.75 L 436.61,238.27 L 435.29,237.29 L 434.59,236.80 L 432.99,235.83 L 431.33,234.86 L 427.46,233.07 L 425.48,232.21 L 421.38,230.82 L 415.59,229.46 L 414.80,229.34 L 412.95,229.28 L 411.98,229.28 L 409.88,229.42 L 407.74,229.61 L 403.23,230.50 L 402.13,230.76 L 400.01,231.36 L 398.98,231.67 L 397.10,232.37 L 396.20,232.73 L 394.69,233.49 L 392.95,234.69 L 392.24,235.32 L 390.81,236.32 L 390.48,236.53 L 389.90,236.82 L 389.26,237.00 L 388.95,237.00 L 388.28,237.59 L 387.50,239.00 L 387.33,239.55 L 386.46,240.73 L 384.84,242.09 L 384.52,242.26 L 383.82,242.94 L 383.45,243.34 L 382.69,244.39 L 381.93,245.52 L 380.45,248.44 L 379.75,249.93 L 378.69,252.94 L 378.48,253.66 L 378.19,254.97 L 378.03,256.64 L 378.04,257.04 L 378.05,258.29 L 378.06,258.98 L 378.06,260.67 L 378.02,266.35 L 378.00,267.83 L 378.29,270.75 L 378.49,272.19 L 379.21,275.02 L 379.62,276.42 L 380.73,279.12 L 381.34,280.45 L 382.84,282.99 L 383.63,284.24 L 385.49,286.58 L 386.46,287.73 L 388.65,289.84 L 389.78,290.87 L 392.29,292.72 L 396.38,295.17 L 397.63,295.82 L 400.56,296.75 L 402.09,297.16 L 405.53,297.62 L 407.32,297.79 L 411.24,297.78 L 417.61,297.20 L 419.05,297.00 L 421.35,296.55 L 422.43,296.31 L 424.25,295.69 L 425.13,295.35 L 426.79,294.44 L 429.43,292.60 L 430.73,291.61 L 433.14,290.06 L 433.68,289.73 L 434.56,289.28 L 435.42,289.00 L 435.77,289.00 L 436.85,288.41 L 438.50,287.00 L 439.00,286.44 L 440.24,285.69 L 440.91,285.38 L 442.53,285.11 L 443.40,285.03 L 445.50,285.23 L 449.27,286.06 L 449.95,286.25 L 451.14,286.76 L 451.72,287.04 L 452.75,287.77 L 453.25,288.17 L 454.18,289.18 L 455.53,291.05 L 456.22,292.14 L 457.58,293.84 L 457.90,294.20 L 458.43,294.69 L 459.01,295.00 L 459.30,295.00 L 459.70,295.22 L 459.87,295.36 L 460.03,295.83 L 460.08,296.09 L 460.02,296.77 L 459.96,297.13 L 459.69,297.98 L 459.38,298.86 L 458.20,300.96 L 455.71,304.27 L 454.93,305.15 L 453.08,306.94 L 452.12,307.83 L 449.94,309.59 L 448.82,310.47 L 446.37,312.19 L 445.11,313.05 L 442.42,314.70 L 439.68,316.33 L 433.69,319.26 L 424.28,322.95 L 423.43,323.23 L 421.84,323.74 L 421.09,323.98 L 419.81,324.37 L 419.22,324.54 L 418.38,324.78 L 417.78,324.90 L 417.76,324.89 L 417.51,324.85 L 417.35,324.82 L 416.84,324.75 L 416.28,324.67 L 414.50,324.42 L 413.52,324.29 L 411.10,323.96 L 409.83,323.79 L 407.00,323.42 L 404.57,323.10 L 400.32,322.44 L 398.28,322.10 L 394.68,321.32 L 392.94,320.92 L 389.81,319.96 L 388.30,319.45 L 385.49,318.22 L 384.11,317.57 L 381.45,316.00 L 380.12,315.16 L 377.45,313.17 L 376.10,312.12 L 373.25,309.63 L 368.59,305.24 L 367.62,304.30 L 365.94,302.63 L 365.15,301.83 L 363.79,300.42 L 363.14,299.74 L 362.05,298.52 L 361.54,297.93 L 360.68,296.85 L 359.87,295.80 L 358.76,293.88 L 357.52,290.82 L 357.28,290.09 L 356.65,288.33 L 356.32,287.42 L 355.58,285.49 L 355.20,284.52 L 354.43,282.64 L 353.35,280.14 L 352.83,279.00 L 352.09,277.00 L 351.77,276.01 L 351.36,273.89 L 351.18,272.77 L 351.01,269.98 L 350.97,269.22 L 350.94,267.47 L 350.92,264.46 L 350.92,263.36 L 350.94,261.44 L 350.95,260.52 L 351.01,258.91 L 351.08,257.37 L 351.37,254.91 L 351.56,253.74 L 352.15,251.59 L 353.46,248.10 L 354.16,246.44 L 355.25,243.37 L 355.48,242.68 L 355.80,241.58 L 356.00,240.49 L 356.00,240.28 L 356.15,239.64 L 356.24,239.28 L 356.55,238.40 L 356.90,237.47 L 357.92,235.20 L 358.47,234.06 L 359.67,231.84 L 361.34,229.23 L 362.04,228.34 L 363.95,226.27 L 364.98,225.20 L 367.40,222.90 L 369.91,220.57 L 375.55,215.94 L 376.95,214.83 L 379.64,212.83 L 380.95,211.88 L 383.31,210.31 L 384.43,209.60 L 386.27,208.62 L 386.68,208.42 L 387.37,208.16 L 388.18,208.00 L 388.57,208.00 L 389.47,207.71 L 390.59,207.01 L 390.82,206.78 L 391.66,206.33 L 392.13,206.10 L 393.39,205.68 L 394.06,205.47 L 395.67,205.09 L 396.51,204.90 L 398.39,204.57 L 400.32,204.26 L 404.72,203.84 L 411.50,203.63 Z" fill="rgba(92,3,211,1)"/>
<path d="M 340.51,425.71 L 340.50,428.04 L 340.50,432.86 L 340.50,435.50 L 340.52,445.77 L 340.55,451.96 L 340.58,454.74 L 340.63,460.07 L 340.66,462.42 L 340.74,466.91 L 340.79,468.84 L 340.89,472.49 L 340.95,474.01 L 341.07,476.84 L 341.14,477.95 L 341.29,479.97 L 341.37,480.68 L 341.55,481.90 L 341.64,482.21 L 343.48,486.42 L 345.20,489.21 L 346.20,490.47 L 348.25,492.86 L 349.29,493.76 L 350.33,494.60 L 350.83,494.92 L 351.82,495.50 L 352.29,495.66 L 354.27,496.28 L 355.14,496.37 L 356.80,496.41 L 357.56,496.19 L 359.05,495.60 L 359.78,495.05 L 361.23,493.79 L 362.00,492.90 L 364.09,490.84 L 364.71,490.36 L 364.97,490.22 L 365.44,489.99 L 365.60,489.99 L 366.85,489.46 L 367.89,488.67 L 368.34,488.17 L 369.03,486.88 L 369.42,485.47 L 369.59,484.43 L 369.76,483.32 L 369.83,482.67 L 369.98,481.30 L 370.05,480.50 L 370.19,478.84 L 370.25,477.89 L 370.37,475.90 L 370.42,474.78 L 370.53,472.45 L 370.58,471.14 L 370.68,468.44 L 370.73,466.93 L 370.81,463.83 L 370.85,462.11 L 370.93,458.58 L 370.97,456.64 L 371.04,452.66 L 371.08,450.48 L 371.15,446.01 L 371.18,443.59 L 371.21,440.75 L 371.21,441.50 L 371.18,444.69 L 371.14,450.47 L 371.11,453.26 L 371.07,458.29 L 371.04,460.72 L 370.99,465.06 L 370.96,467.15 L 370.89,470.85 L 370.85,472.63 L 370.76,475.75 L 370.71,477.25 L 370.59,479.86 L 370.53,481.10 L 370.37,483.25 L 370.28,484.27 L 370.08,486.01 L 369.97,486.83 L 369.71,488.22 L 369.57,488.88 L 369.26,489.98 L 368.92,491.02 L 368.04,492.47 L 367.56,493.13 L 366.33,494.17 L 364.05,495.75 L 363.10,496.38 L 360.67,497.26 L 359.40,497.63 L 356.64,497.96 L 355.26,498.05 L 352.57,497.80 L 351.28,497.60 L 349.10,496.74 L 348.77,496.57 L 347.92,495.95 L 347.48,495.61 L 346.49,494.73 L 343.60,491.66 L 340.50,487.81 L 340.50,437.21 L 340.50,431.84 L 340.50,429.25 L 340.51,424.55 L 340.51,422.27 L 340.51,421.99 M 258.37,465.78 L 261.07,466.78 L 262.40,466.95 L 263.35,466.99 L 263.23,467.00 L 262.47,467.00 L 261.08,466.81 L 260.39,466.69 L 259.01,466.19 L 258.31,465.90 L 256.78,465.04 L 255.98,464.55 L 254.15,463.25 L 257.00,465.16 M 276.53,460.03 L 275.86,461.13 L 275.27,461.98 L 273.59,463.49 L 272.68,464.20 L 271.77,464.68 L 272.28,464.37 L 273.34,463.51 L 273.86,463.01 L 275.93,460.78 L 276.80,459.55 L 276.84,459.48 M 316.46,341.43 L 317.73,341.67 L 320.35,342.94 L 321.64,343.68 L 324.05,345.71 L 325.19,346.79 L 327.03,349.24 L 328.79,353.06 L 329.00,353.88 L 329.38,355.13 L 329.54,355.75 L 329.56,357.14 L 329.52,357.53 L 329.33,358.47 L 329.20,358.98 L 328.79,360.21 L 328.56,360.87 L 327.89,362.49 L 327.53,363.35 L 326.56,365.45 L 326.04,366.56 L 324.74,369.23 L 324.04,370.64 L 322.35,373.98 L 321.45,375.74 L 319.33,379.83 L 318.21,381.98 L 315.62,386.92 L 314.94,388.21 L 313.48,390.97 L 312.74,392.38 L 311.15,395.39 L 310.33,396.93 L 308.61,400.19 L 307.73,401.85 L 305.85,405.39 L 304.90,407.19 L 302.88,411.00 L 301.85,412.94 L 299.67,417.04 L 298.56,419.13 L 296.22,423.54 L 292.53,430.50 L 290.49,434.35 L 286.62,441.58 L 285.69,443.32 L 283.93,446.58 L 283.08,448.16 L 281.51,451.05 L 280.75,452.43 L 279.42,454.86 L 278.89,455.83 L 279.24,454.85 L 279.33,454.38 L 279.42,453.49 L 279.33,453.15 L 279.46,451.50 L 280.00,450.42 L 280.43,450.06 L 281.54,448.48 L 282.00,447.13 L 282.00,446.52 L 282.18,445.38 L 282.47,444.45 L 282.68,443.93 L 283.68,441.81 L 284.31,440.87 L 285.43,439.10 L 286.30,437.61 L 286.77,436.79 L 288.65,433.34 L 289.41,431.77 L 291.79,427.41 L 292.52,426.25 L 292.83,425.82 L 293.40,425.08 L 293.60,424.92 L 294.59,423.85 L 295.00,423.15 L 295.00,422.92 L 295.20,421.61 L 295.53,420.47 L 295.77,419.80 L 296.93,416.84 L 297.72,415.18 L 299.40,411.80 L 300.31,410.20 L 302.15,407.14 L 303.01,405.99 L 305.83,401.70 L 306.48,400.47 L 306.69,399.99 L 307.00,399.14 L 307.00,398.90 L 307.20,397.99 L 307.51,397.22 L 307.73,396.79 L 308.81,395.00 L 309.50,394.18 L 311.27,391.76 L 311.68,391.06 L 311.80,390.77 L 312.00,390.26 L 312.00,390.11 L 312.59,388.97 L 313.45,388.11 L 314.00,387.77 L 315.45,386.11 L 316.00,384.61 L 316.00,383.79 L 316.34,382.15 L 316.88,380.62 L 317.27,379.71 L 318.13,377.81 L 318.65,376.79 L 319.74,374.74 L 320.33,373.73 L 322.05,370.75 L 323.05,368.93 L 323.48,368.10 L 325.02,364.97 L 325.54,363.63 L 326.42,361.08 L 326.66,359.93 L 326.99,357.69 L 326.99,356.60 L 326.73,353.05 L 326.26,351.19 L 325.82,350.40 L 324.79,348.92 L 324.01,348.21 L 322.26,346.81 L 321.06,346.04 L 316.90,343.87 L 314.41,343.10 L 313.30,343.06 L 311.15,343.20 L 310.20,343.60 L 308.38,344.64 L 307.59,345.50 L 305.67,347.27 L 305.10,347.68 L 304.87,347.80 L 304.45,348.00 L 304.32,348.00 L 303.61,348.23 L 303.03,348.60 L 302.71,348.87 L 301.34,350.16 L 300.64,351.00 L 299.28,352.75 L 298.74,353.62 L 297.80,355.33 L 297.64,356.00 L 297.16,357.24 L 296.65,358.23 L 296.32,358.76 L 294.84,360.95 L 294.01,361.89 L 291.84,365.09 L 291.36,366.15 L 291.22,366.64 L 291.00,367.60 L 291.00,368.00 L 290.45,370.63 L 289.63,372.47 L 289.11,373.13 L 288.16,374.58 L 287.40,375.93 L 286.98,376.73 L 285.26,380.23 L 284.51,382.02 L 282.08,387.18 L 281.28,388.64 L 280.92,389.21 L 280.26,390.22 L 280.01,390.50 L 278.53,392.90 L 277.70,394.94 L 277.50,395.87 L 276.48,398.46 L 276.01,399.08 L 275.75,399.29 L 275.21,399.65 L 274.93,399.73 L 273.87,400.52 L 272.95,401.59 L 272.42,402.36 L 271.31,404.02 L 270.72,405.03 L 269.51,407.16 L 268.89,408.36 L 267.20,411.56 L 266.15,413.48 L 265.69,414.27 L 264.83,415.72 L 264.56,416.14 L 264.89,415.61 L 265.14,415.18 L 265.79,414.01 L 266.14,413.37 L 266.99,411.75 L 267.44,410.89 L 268.51,408.78 L 269.07,407.67 L 270.37,405.04 L 271.06,403.65 L 272.63,400.46 L 275.29,395.00 L 275.79,393.97 L 277.12,391.30 L 277.83,389.89 L 279.43,386.77 L 280.25,385.18 L 281.92,381.97 L 284.29,377.50 L 285.03,376.12 L 286.76,372.89 L 287.65,371.22 L 289.51,367.72 L 290.44,365.97 L 292.22,362.62 L 294.54,358.24 L 295.21,356.97 L 296.65,354.42 L 297.36,353.16 L 298.77,350.85 L 299.45,349.74 L 300.67,347.93 L 302.08,346.07 L 302.90,345.18 L 305.01,343.71 L 306.13,343.03 L 308.65,342.06 L 309.93,341.65 L 312.59,341.26 M 263.97,416.98 L 263.85,417.06 L 263.42,417.56 L 263.00,418.19 L 262.73,418.63 L 262.16,419.60 L 261.83,420.19 L 261.13,421.44 L 260.75,422.16 L 259.11,425.26 L 258.20,427.04 L 256.34,430.72 L 255.40,432.64 L 255.15,433.16 L 255.39,432.67 L 256.33,430.74 L 258.19,427.06 L 259.09,425.28 L 260.73,422.18 L 261.11,421.46 L 261.81,420.20 L 262.14,419.61 L 262.71,418.64 L 262.98,418.20 L 263.40,417.57 L 263.83,417.06 L 263.94,416.99 L 264.18,416.69 M 380.96,380.36 L 379.54,381.72 L 379.55,381.72 L 380.96,380.36 L 382.60,378.93 M 543.34,290.72 L 543.87,290.83 L 545.04,290.98 L 545.51,290.98 L 544.90,291.04 L 543.78,290.97 L 543.29,290.89 L 542.88,290.50 L 542.87,290.47 M 547.27,289.00 L 547.71,289.29 L 548.00,290.00 L 548.00,290.25 L 547.92,290.28 L 547.56,289.58 L 547.10,289.00 M 547.85,284.59 L 546.93,285.93 L 546.53,286.57 L 546.13,287.57 L 546.03,287.94 L 545.66,287.62 L 545.22,287.37 L 545.01,287.37 L 544.59,287.44 L 544.36,287.60 L 543.87,287.99 L 543.55,288.31 L 542.71,289.50 L 542.62,288.97 L 542.59,288.68 L 541.80,287.87 L 540.33,286.91 L 540.63,286.87 L 540.87,286.70 L 541.33,286.27 L 541.55,285.92 L 542.70,285.33 L 543.90,285.26 L 544.54,285.42 L 545.73,285.56 L 546.46,285.45 L 546.80,285.29 L 547.48,284.90 L 547.83,284.58 L 548.03,284.37 M 551.00,279.15 L 550.87,279.63 L 551.00,279.08 M 540.13,274.78 L 539.45,275.45 L 537.83,277.91 L 537.33,279.36 L 537.35,279.20 L 537.76,277.84 L 537.99,277.18 L 538.68,275.99 L 539.06,275.43 L 540.02,274.52 L 541.31,273.81 M 543.58,272.34 L 542.94,273.00 L 542.72,273.00 L 543.28,272.52 L 544.50,270.77 M 547.83,268.28 L 547.86,268.27 L 547.86,268.27 M 548.60,268.21 L 548.07,268.25 L 548.60,268.21 M 536.75,265.37 L 536.67,265.27 L 536.31,264.36 L 536.63,265.17 M 547.43,261.87 L 549.53,262.05 L 548.55,262.05 L 545.93,262.53 L 542.00,264.00 L 541.41,264.30 L 540.43,264.79 L 539.97,265.02 L 539.82,265.09 L 540.54,264.56 L 541.00,263.78 L 541.00,263.39 L 541.53,262.63 L 542.35,262.25 L 542.94,262.13 L 544.23,261.92 L 544.99,261.88 L 546.58,261.83 M 556.00,264.00 L 555.66,263.71 L 555.66,263.71 M 566.13,249.09 L 566.63,249.45 L 567.42,250.16 L 567.78,250.51 L 568.30,251.22 L 568.52,251.57 L 568.76,252.28 L 568.81,253.35 L 568.36,251.44 L 567.34,250.10 L 566.48,249.40 L 565.64,248.78 M 560.15,245.60 L 562.57,246.85 L 562.98,247.11 L 560.24,245.67 L 559.43,245.31 M 551.55,243.16 L 552.78,243.31 L 553.63,243.50 L 553.52,243.55 L 553.08,243.86 L 552.91,244.14 L 552.00,244.96 L 551.68,244.91 L 551.49,244.79 L 551.09,244.49 L 550.84,244.24 L 549.85,243.58 L 549.02,243.28 L 548.53,243.20 L 546.43,243.07 L 545.19,243.23 L 542.61,243.70 L 541.25,244.12 L 538.51,245.07 L 537.17,245.68 L 536.50,246.01 L 537.37,245.50 L 538.47,244.96 L 540.75,244.13 L 541.90,243.75 L 544.26,243.28 L 545.45,243.08 L 547.87,242.96 L 549.09,242.94 M 551.19,277.89 L 551.50,277.18 L 551.73,276.79 L 552.79,275.25 L 551.73,276.81 L 551.50,277.20 L 551.19,277.93 L 551.00,278.88 L 551.00,278.82 M 548.86,268.28 L 550.27,268.64 L 552.92,270.10 L 550.27,268.64 M 528.24,254.18 L 528.34,254.45 L 528.24,254.18 Z" fill="rgba(129,73,197,1)"/>
<path d="M 371.96,398.78 L 371.87,399.96 L 371.74,403.01 L 371.71,403.84 L 371.66,405.72 L 371.63,406.70 L 371.59,408.91 L 371.57,410.05 L 371.53,412.62 L 371.51,413.95 L 371.47,416.91 L 371.45,418.44 L 371.42,421.83 L 371.36,427.44 L 371.33,430.41 L 371.27,435.92 L 371.24,438.61 L 371.18,443.59 L 371.15,446.01 L 371.08,450.48 L 371.04,452.66 L 370.97,456.64 L 370.93,458.58 L 370.85,462.11 L 370.81,463.83 L 370.73,466.93 L 370.68,468.44 L 370.58,471.14 L 370.53,472.45 L 370.42,474.78 L 370.37,475.90 L 370.25,477.89 L 370.19,478.84 L 370.05,480.50 L 369.98,481.30 L 369.83,482.67 L 369.76,483.32 L 369.59,484.43 L 369.42,485.47 L 369.03,486.88 L 368.34,488.17 L 367.89,488.67 L 366.85,489.46 L 365.60,489.99 L 365.44,489.99 L 364.97,490.22 L 364.71,490.36 L 364.09,490.84 L 362.00,492.90 L 361.23,493.79 L 359.78,495.05 L 359.05,495.60 L 357.56,496.19 L 356.80,496.41 L 355.14,496.37 L 354.27,496.28 L 352.29,495.66 L 351.82,495.50 L 350.83,494.92 L 350.33,494.60 L 349.29,493.76 L 348.25,492.86 L 346.20,490.47 L 345.20,489.21 L 343.48,486.42 L 341.64,482.21 L 341.55,481.90 L 341.37,480.68 L 341.29,479.97 L 341.14,477.95 L 341.07,476.84 L 340.95,474.01 L 340.89,472.49 L 340.79,468.84 L 340.74,466.91 L 340.66,462.42 L 340.63,460.07 L 340.58,454.74 L 340.55,451.96 L 340.52,445.77 L 340.50,435.50 L 340.50,432.86 L 340.50,428.04 L 340.51,425.71 L 340.51,421.49 L 340.51,419.45 L 340.52,415.76 L 340.53,413.99 L 340.53,413.72 L 340.59,413.94 L 340.75,414.28 L 341.25,415.42 L 341.65,416.36 L 341.86,416.88 L 342.71,419.04 L 343.05,420.00 L 344.15,422.80 L 345.06,424.87 L 345.57,425.97 L 347.76,430.51 L 348.94,432.74 L 350.13,434.94 L 350.71,435.97 L 351.87,437.97 L 352.42,438.86 L 353.48,440.55 L 353.95,441.24 L 354.86,442.49 L 355.23,442.92 L 356.80,444.59 L 358.12,445.91 L 358.85,446.61 L 361.92,449.48 L 363.31,450.67 L 364.71,451.84 L 365.38,452.35 L 366.70,453.34 L 367.28,453.73 L 368.37,454.44 L 368.78,454.66 L 369.51,455.00 L 369.69,455.00 L 370.32,454.39 L 370.48,453.90 L 370.55,453.56 L 370.68,452.80 L 370.73,452.31 L 370.83,451.25 L 370.86,450.60 L 370.93,449.22 L 370.95,448.39 L 370.99,446.64 L 371.01,445.62 L 371.03,443.48 L 371.03,442.25 L 371.04,439.34 L 371.06,437.14 L 371.07,435.94 L 371.12,430.91 L 371.16,428.20 L 371.23,422.70 L 371.28,420.00 L 371.37,414.68 L 371.42,412.32 L 371.55,407.04 L 371.64,404.09 L 371.69,402.86 L 371.80,400.54 L 371.87,399.57 L 372.02,397.76 L 372.12,397.00 L 372.13,396.94 M 272.28,464.37 L 270.73,465.32 L 269.25,466.03 L 266.46,466.79 L 265.08,467.06 L 263.35,466.99 L 267.37,466.50 L 269.94,465.67 L 271.10,465.02 L 272.95,463.83 M 278.39,457.06 L 277.77,458.04 L 278.45,456.88 L 278.64,456.45 M 247.87,456.04 L 248.39,457.09 L 248.90,457.95 L 248.39,457.10 L 247.87,456.05 L 247.44,453.82 L 247.44,453.80 M 314.41,343.10 L 316.90,343.87 L 321.06,346.04 L 322.26,346.81 L 324.01,348.21 L 324.79,348.92 L 325.82,350.40 L 326.26,351.19 L 326.73,353.05 L 326.99,356.60 L 326.99,357.69 L 326.66,359.93 L 326.42,361.08 L 325.54,363.63 L 325.02,364.97 L 323.48,368.10 L 323.05,368.93 L 322.05,370.75 L 320.33,373.73 L 319.74,374.74 L 318.65,376.79 L 318.13,377.81 L 317.27,379.71 L 316.88,380.62 L 316.34,382.15 L 316.00,383.79 L 316.00,384.61 L 315.45,386.11 L 314.00,387.77 L 313.45,388.11 L 312.59,388.97 L 312.00,390.11 L 312.00,390.26 L 311.80,390.77 L 311.68,391.06 L 311.27,391.76 L 309.50,394.18 L 308.81,395.00 L 307.73,396.79 L 307.51,397.22 L 307.20,397.99 L 307.00,398.90 L 307.00,399.14 L 306.69,399.99 L 306.48,400.47 L 305.83,401.70 L 303.01,405.99 L 302.15,407.14 L 300.31,410.20 L 299.40,411.80 L 297.72,415.18 L 296.93,416.84 L 295.77,419.80 L 295.53,420.47 L 295.20,421.61 L 295.00,422.92 L 295.00,423.15 L 294.59,423.85 L 293.60,424.92 L 293.40,425.08 L 292.83,425.82 L 292.52,426.25 L 291.79,427.41 L 289.41,431.77 L 288.65,433.34 L 286.77,436.79 L 286.30,437.61 L 285.43,439.10 L 284.31,440.87 L 283.68,441.81 L 282.68,443.93 L 282.47,444.45 L 282.18,445.38 L 282.00,446.52 L 282.00,447.13 L 281.54,448.48 L 280.43,450.06 L 280.00,450.42 L 279.46,451.50 L 279.33,453.15 L 279.42,453.49 L 279.33,454.38 L 279.24,454.85 L 279.11,455.23 L 279.16,455.01 L 279.31,453.85 L 279.26,453.20 L 279.07,451.82 L 278.88,450.94 L 278.54,449.85 L 278.19,448.87 L 277.95,448.28 L 277.43,447.02 L 277.11,446.30 L 276.46,444.81 L 276.08,443.99 L 274.48,440.55 L 273.56,438.68 L 271.64,434.85 L 270.64,432.93 L 268.73,429.33 L 267.61,427.26 L 267.12,426.38 L 266.18,424.73 L 265.77,424.05 L 265.00,422.78 L 264.68,422.28 L 264.06,421.38 L 263.80,421.05 L 263.32,420.49 L 263.12,420.32 L 262.75,420.07 L 262.61,420.06 L 262.35,420.10 L 262.25,420.22 L 261.68,421.02 L 261.21,421.77 L 260.93,422.24 L 259.72,424.36 L 259.00,425.71 L 257.50,428.56 L 256.69,430.14 L 255.05,433.40 L 254.23,435.06 L 253.14,437.32 L 253.52,436.51 L 255.40,432.64 L 256.34,430.72 L 258.20,427.04 L 259.11,425.26 L 260.75,422.16 L 261.13,421.44 L 261.83,420.19 L 262.16,419.60 L 262.73,418.63 L 263.00,418.19 L 263.42,417.56 L 263.85,417.06 L 263.97,416.98 L 264.52,416.20 L 264.83,415.72 L 265.69,414.27 L 266.15,413.48 L 267.20,411.56 L 268.89,408.36 L 269.51,407.16 L 270.72,405.03 L 271.31,404.02 L 272.42,402.36 L 272.95,401.59 L 273.87,400.52 L 274.93,399.73 L 275.21,399.65 L 275.75,399.29 L 276.01,399.08 L 276.48,398.46 L 277.50,395.87 L 277.70,394.94 L 278.53,392.90 L 280.01,390.50 L 280.26,390.22 L 280.92,389.21 L 281.28,388.64 L 282.08,387.18 L 284.51,382.02 L 285.26,380.23 L 286.98,376.73 L 287.40,375.93 L 288.16,374.58 L 289.11,373.13 L 289.63,372.47 L 290.45,370.63 L 291.00,368.00 L 291.00,367.60 L 291.22,366.64 L 291.36,366.15 L 291.84,365.09 L 294.01,361.89 L 294.84,360.95 L 296.32,358.76 L 296.65,358.23 L 297.16,357.24 L 297.64,356.00 L 297.80,355.33 L 298.74,353.62 L 299.28,352.75 L 300.64,351.00 L 301.34,350.16 L 302.71,348.87 L 303.03,348.60 L 303.61,348.23 L 304.32,348.00 L 304.45,348.00 L 304.87,347.80 L 305.10,347.68 L 305.67,347.27 L 307.59,345.50 L 308.38,344.64 L 310.20,343.60 L 311.15,343.20 L 313.30,343.06 M 343.47,383.30 L 342.57,386.88 L 342.17,388.86 L 341.41,392.89 L 341.10,394.96 L 340.81,397.09 L 340.88,395.55 L 341.09,393.07 L 341.20,391.92 L 341.50,390.05 L 342.84,385.00 L 343.16,383.97 L 343.75,382.25 M 377.16,384.78 L 374.20,389.94 L 373.69,391.05 L 373.69,391.04 L 374.25,389.82 L 377.19,384.73 L 379.52,381.75 M 380.96,380.36 L 379.55,381.72 L 379.57,381.69 L 380.99,380.33 L 382.27,379.21 M 349.82,370.00 L 347.95,373.62 L 347.35,374.65 L 347.10,375.06 L 346.62,375.79 L 346.45,376.00 L 346.38,376.10 L 346.44,376.00 L 346.61,375.79 L 347.09,375.06 L 347.35,374.65 L 347.95,373.62 L 349.82,370.00 L 350.26,369.07 L 350.26,369.07 M 389.36,374.35 L 389.36,374.35 L 391.45,373.36 M 401.21,365.94 L 400.80,366.63 L 401.22,365.92 M 402.50,358.47 L 402.41,360.46 L 402.35,361.42 L 402.09,363.08 L 401.94,363.88 L 401.47,365.27 L 401.30,365.71 L 401.48,365.24 L 401.95,363.83 L 402.10,363.03 L 402.35,361.34 L 402.41,360.37 L 402.50,358.34 M 361.41,356.21 L 359.57,357.95 L 358.75,358.75 L 357.18,360.31 L 356.49,361.03 L 355.17,362.44 L 354.59,363.09 L 353.19,364.77 L 353.89,363.88 L 354.78,362.79 L 356.81,360.57 L 357.86,359.47 L 360.16,357.27 L 362.50,355.09 L 363.26,354.50 M 377.53,345.36 L 376.60,345.80 L 369.95,349.50 L 371.44,348.53 L 375.19,346.41 L 377.03,345.48 L 379.02,344.65 M 391.23,341.46 L 391.92,341.82 L 392.08,342.07 L 392.94,342.65 L 394.57,343.38 L 394.86,343.47 L 395.61,343.87 L 396.01,344.10 L 396.90,344.73 L 399.57,347.08 L 400.24,347.78 L 400.51,348.11 L 399.80,347.37 L 398.93,346.58 L 396.97,344.98 L 395.67,344.17 L 394.98,343.86 L 393.56,343.30 L 392.75,343.10 L 391.04,342.73 L 390.03,342.60 L 386.92,342.32 L 385.28,342.39 L 385.97,342.18 L 386.75,341.97 L 388.16,341.66 L 388.83,341.53 L 389.95,341.41 L 390.46,341.37 Z" fill="rgba(128,64,210,1)"/>
<path d="M 267.37,466.50 L 267.26,466.51 L 267.92,466.32 M 277.02,459.30 L 276.23,460.55 L 274.35,462.61 L 273.36,463.56 L 272.87,463.88 L 273.06,463.68 L 273.59,463.07 L 273.75,462.75 L 274.00,462.11 L 274.00,461.79 L 274.55,460.25 L 275.36,459.46 L 275.88,459.32 L 277.58,458.35 M 277.95,448.28 L 278.19,448.87 L 278.54,449.85 L 278.88,450.94 L 279.07,451.82 L 279.26,453.20 L 279.31,453.85 L 279.16,455.01 L 279.03,455.60 L 278.94,455.79 L 279.17,454.55 L 279.11,453.50 L 278.87,451.28 L 278.53,450.00 L 278.15,448.82 L 277.89,448.15 M 370.32,454.39 L 369.69,455.00 L 370.32,454.39 M 355.23,442.92 L 354.86,442.49 L 354.86,442.49 M 262.25,420.22 L 261.68,421.02 L 261.21,421.77 L 260.93,422.24 L 259.72,424.36 L 259.00,425.71 L 257.50,428.56 L 256.69,430.14 L 255.05,433.39 L 254.23,435.06 L 254.09,435.36 L 254.23,435.06 L 255.05,433.40 L 256.69,430.14 L 257.50,428.56 L 259.00,425.71 L 259.72,424.36 L 260.93,422.24 L 261.21,421.77 L 261.68,421.02 L 262.25,420.22 L 262.35,420.10 L 262.35,420.10 M 385.72,376.57 L 383.98,377.73 L 380.99,380.33 L 379.57,381.69 L 377.19,384.73 L 374.25,389.82 L 373.69,391.04 L 372.91,393.18 L 372.56,394.29 L 372.12,397.00 L 372.02,397.76 L 371.87,399.57 L 371.80,400.54 L 371.69,402.86 L 371.64,404.09 L 371.55,407.04 L 371.42,412.32 L 371.37,414.68 L 371.28,420.00 L 371.23,422.70 L 371.16,428.20 L 371.15,428.54 L 371.20,423.85 L 371.23,421.43 L 371.29,416.71 L 371.32,414.67 L 371.35,408.88 L 371.31,405.45 L 371.26,404.06 L 371.21,402.74 L 371.18,402.18 L 371.12,401.13 L 371.08,400.73 L 371.00,400.00 L 370.95,399.78 L 370.86,399.41 L 370.81,399.38 L 370.57,398.95 L 370.47,398.45 L 370.46,398.11 L 370.50,396.59 L 370.66,395.71 L 372.41,390.06 L 374.16,386.29 L 375.18,384.65 L 376.21,383.07 L 376.74,382.39 L 377.78,381.10 L 378.29,380.60 L 379.30,379.70 L 379.76,379.42 L 380.67,379.00 L 381.06,379.00 L 382.55,378.67 L 383.39,378.18 L 383.58,377.87 L 384.41,377.17 L 385.45,376.50 L 386.16,376.09 L 387.69,375.24 L 388.57,374.78 L 389.02,374.55 M 345.07,424.91 L 345.06,424.87 L 345.05,424.85 M 344.53,423.65 L 344.15,422.80 L 343.95,422.28 M 341.21,415.23 L 341.55,415.95 L 341.75,416.40 L 342.55,418.40 L 342.91,419.50 L 343.93,422.22 L 343.05,420.00 L 342.71,419.04 L 341.86,416.88 L 341.65,416.36 L 341.25,415.42 L 341.07,415.00 M 340.05,405.68 L 339.99,407.77 L 340.00,408.73 L 340.04,410.59 L 340.10,411.39 L 340.12,411.52 L 340.09,411.29 L 339.96,410.00 L 339.98,406.71 L 340.03,404.99 L 340.12,403.83 M 342.56,387.16 L 342.54,387.55 L 342.54,388.25 L 342.62,388.45 L 342.70,389.34 L 342.62,390.23 L 342.53,390.77 L 342.00,393.17 L 341.57,394.44 L 341.01,396.62 L 340.69,398.39 L 340.57,399.38 L 340.18,403.08 L 340.34,401.10 L 340.54,399.11 L 341.10,394.96 L 341.41,392.89 L 342.17,388.86 L 342.57,386.88 L 342.66,386.53 M 348.00,373.55 L 347.39,374.62 L 347.13,375.04 L 346.65,375.79 L 346.48,376.00 L 345.78,377.11 L 345.29,378.08 L 345.04,378.66 L 344.41,380.28 L 344.92,378.84 L 345.17,378.22 L 345.68,377.18 L 346.45,376.00 L 346.62,375.79 L 347.10,375.06 L 347.35,374.65 L 347.95,373.62 L 348.74,372.09 M 399.08,368.76 L 398.53,369.28 L 397.15,370.28 L 396.41,370.78 L 394.63,371.78 L 391.45,373.36 L 390.39,373.86 L 390.41,373.85 L 391.39,373.39 L 394.59,371.80 L 396.38,370.79 L 397.12,370.30 L 398.51,369.29 L 399.07,368.77 L 399.93,367.88 M 350.31,368.97 L 350.32,368.93 L 350.36,368.87 M 400.50,367.12 L 400.11,367.70 L 400.10,367.70 L 400.50,367.12 L 400.74,366.71 M 356.48,361.35 L 356.32,362.15 L 355.44,364.27 L 354.55,365.00 L 353.96,365.00 L 353.05,365.31 L 352.40,365.83 L 352.06,366.22 L 352.50,365.59 L 354.59,363.09 L 355.17,362.44 L 356.49,361.03 L 356.97,360.53 M 383.36,342.93 L 381.29,343.80 L 380.10,344.53 L 378.88,345.33 L 378.20,345.81 L 376.80,346.83 L 376.00,347.44 L 372.15,349.88 L 370.95,350.46 L 370.45,350.64 L 369.52,350.92 L 369.20,350.93 L 366.93,351.67 L 365.31,352.70 L 364.70,353.34 L 362.32,355.52 L 361.16,356.44 L 361.41,356.21 L 364.50,353.35 L 365.05,352.85 L 366.69,351.63 L 367.58,351.00 L 369.71,349.64 L 376.60,345.80 L 377.53,345.36 L 379.11,344.61 L 379.86,344.26 L 381.15,343.70 L 382.37,343.18 L 384.27,342.61 L 384.37,342.59 M 394.98,343.86 L 395.67,344.17 L 396.97,344.98 L 398.93,346.58 L 396.99,345.01 L 395.71,344.19 L 395.03,343.88 L 394.63,343.72 M 390.03,342.60 L 390.30,342.63 L 386.52,342.38 L 384.41,342.58 L 385.18,342.40 L 386.92,342.32 M 545.22,287.37 L 545.66,287.62 L 546.50,288.36 L 546.91,288.77 L 547.56,289.58 L 548.00,290.43 L 548.00,290.62 L 547.28,290.86 L 546.85,290.95 L 545.65,290.99 L 545.04,290.98 L 543.87,290.83 L 543.34,290.72 L 542.71,290.38 L 542.54,290.21 L 542.70,289.52 L 543.55,288.31 L 543.87,287.99 L 544.36,287.60 L 544.59,287.44 L 545.01,287.37 M 550.27,268.64 L 552.92,270.10 L 555.94,272.33 L 553.47,274.62 L 552.79,275.25 L 551.73,276.79 L 551.50,277.18 L 551.19,277.89 L 551.00,278.82 L 551.00,279.08 L 550.84,279.77 L 550.73,280.13 L 550.39,280.94 L 548.93,283.37 L 548.54,283.86 L 547.83,284.58 L 547.48,284.90 L 546.80,285.29 L 546.46,285.45 L 545.73,285.56 L 544.54,285.42 L 543.90,285.26 L 542.70,285.33 L 541.55,285.92 L 541.33,286.27 L 540.87,286.70 L 540.63,286.87 L 540.11,286.94 L 539.84,286.93 L 539.23,286.64 L 538.91,286.45 L 538.20,285.80 L 537.68,285.28 L 537.13,283.67 L 536.94,282.82 L 537.04,280.84 L 537.13,280.04 L 539.63,282.36 L 541.27,283.75 L 542.01,284.22 L 542.72,284.66 L 543.01,284.79 L 543.55,285.00 L 543.72,285.00 L 544.76,284.57 L 545.49,283.90 L 545.85,283.42 L 547.26,281.17 L 547.80,279.84 L 548.30,278.50 L 548.48,277.85 L 548.80,276.57 L 548.86,276.01 L 548.92,274.95 L 548.83,274.56 L 548.58,273.86 L 548.39,273.74 L 548.69,273.83 L 549.37,273.66 L 549.70,273.52 L 550.27,272.94 L 550.53,272.60 L 550.82,271.67 L 550.92,271.18 L 550.63,270.47 L 549.63,270.00 L 549.17,270.00 L 548.40,270.28 L 548.04,270.45 L 547.56,270.99 L 547.35,271.29 L 547.23,271.98 L 547.53,273.05 L 547.76,273.42 L 548.30,273.70 L 547.55,273.74 L 546.69,274.03 L 546.13,274.27 L 544.93,274.84 L 544.25,275.20 L 542.84,275.98 L 542.11,276.43 L 537.32,279.39 L 537.83,277.91 L 539.45,275.45 L 540.13,274.78 L 541.43,273.72 L 541.72,273.50 L 542.21,273.19 L 542.72,273.00 L 542.94,273.00 L 543.58,272.34 L 544.51,270.75 L 544.85,269.98 L 545.88,268.98 L 546.45,268.56 L 547.86,268.27 L 548.60,268.21 M 550.31,256.27 L 551.38,256.38 L 553.42,256.86 L 554.42,257.13 L 556.21,257.89 L 557.06,258.29 L 558.45,259.29 L 559.09,259.82 L 559.95,261.03 L 560.50,263.02 L 560.50,263.80 L 560.20,264.83 L 560.00,265.26 L 559.33,265.61 L 558.94,265.69 L 557.92,265.34 L 556.03,264.02 L 555.66,263.71 L 554.55,263.18 L 553.94,262.93 L 552.46,262.53 L 550.91,262.16 L 547.43,261.87 L 546.58,261.83 L 544.99,261.88 L 544.23,261.92 L 544.16,261.93 L 544.71,261.71 L 545.00,261.27 L 545.00,261.00 L 544.71,260.29 L 544.27,260.00 L 544.00,260.00 L 543.29,260.29 L 543.00,260.72 L 543.00,261.00 L 543.11,261.52 L 543.29,261.71 L 543.73,262.00 L 543.74,262.00 L 542.94,262.13 L 542.35,262.25 L 541.53,262.63 L 541.00,263.39 L 541.00,263.78 L 540.54,264.56 L 539.42,265.39 L 538.86,265.61 L 538.09,265.85 L 537.75,265.94 L 537.29,265.89 L 537.08,265.82 L 536.78,265.42 L 536.63,265.17 L 536.31,264.36 L 536.09,263.79 L 536.12,262.66 L 536.21,262.09 L 536.86,260.97 L 537.26,260.41 L 538.51,259.31 L 541.07,257.69 L 541.95,257.23 L 543.93,256.63 L 544.94,256.38 L 547.08,256.17 L 548.15,256.11 M 552.64,259.20 L 552.42,259.38 L 552.12,259.83 L 552.21,260.18 L 552.56,260.97 L 552.98,261.48 L 553.73,262.31 L 554.05,262.55 L 554.69,262.91 L 554.99,262.92 L 555.59,262.81 L 555.92,262.58 L 556.58,262.00 L 556.97,261.54 L 557.47,260.78 L 557.55,260.39 L 557.44,260.23 L 557.13,259.94 L 556.82,259.81 L 556.08,259.56 L 555.54,259.42 L 553.54,259.11 M 548.53,243.20 L 549.02,243.28 L 549.85,243.58 L 550.84,244.24 L 551.09,244.49 L 551.18,244.56 L 550.47,244.35 L 550.03,244.33 L 549.19,244.38 L 548.89,244.57 L 548.41,245.24 L 548.38,245.81 L 548.54,246.07 L 549.10,246.59 L 549.55,246.74 L 550.54,246.97 L 551.05,246.98 L 552.05,246.91 L 552.41,246.77 L 553.00,246.40 L 553.00,246.11 L 552.52,245.27 L 552.04,244.93 L 552.91,244.14 L 553.08,243.86 L 553.52,243.55 L 553.77,243.44 L 554.49,243.46 L 554.90,243.51 L 556.05,243.88 L 558.42,244.86 L 560.24,245.67 L 563.17,247.20 L 564.51,247.96 L 566.48,249.40 L 567.34,250.10 L 568.36,251.44 L 568.81,253.35 L 568.69,254.17 L 568.00,255.17 L 567.59,255.56 L 566.36,255.70 L 565.68,255.66 L 563.96,254.95 L 560.91,252.93 L 559.98,252.19 L 558.50,251.18 L 557.78,250.74 L 556.33,250.20 L 555.56,249.97 L 553.61,249.75 L 553.07,249.70 L 551.81,249.65 L 549.58,249.60 L 548.77,249.59 L 547.36,249.59 L 546.69,249.60 L 545.54,249.64 L 544.43,249.71 L 542.66,250.04 L 541.80,250.26 L 540.12,251.01 L 537.10,252.75 L 536.37,253.20 L 535.09,253.95 L 534.48,254.30 L 533.41,254.86 L 532.38,255.37 L 530.88,255.82 L 530.20,255.95 L 529.27,255.66 L 528.86,255.43 L 528.34,254.45 L 528.21,254.11 L 528.20,253.39 L 528.24,253.03 L 528.53,252.28 L 528.90,251.52 L 530.37,249.96 L 531.20,249.18 L 533.40,247.69 L 534.56,246.96 L 537.17,245.68 L 538.51,245.07 L 541.25,244.12 L 542.61,243.70 L 545.19,243.23 L 546.43,243.07 M 533.75,249.40 L 533.11,249.93 L 533.00,250.29 L 532.91,251.05 L 533.12,251.41 L 533.69,252.11 L 534.25,252.33 L 535.16,252.63 L 535.56,252.65 L 536.30,252.63 L 536.58,252.50 L 537.10,252.18 L 537.26,251.91 L 537.50,251.31 L 537.50,250.92 L 536.84,249.82 L 535.87,249.27 L 535.25,249.18 M 550.94,230.31 L 554.18,230.80 L 555.54,231.05 L 558.27,231.79 L 559.63,232.20 L 562.28,233.20 L 563.58,233.72 L 566.04,234.91 L 567.24,235.52 L 569.41,236.83 L 570.45,237.49 L 572.22,238.86 L 573.05,239.55 L 574.34,240.91 L 574.91,241.58 L 575.59,242.87 L 575.83,244.64 L 575.69,245.38 L 575.03,246.25 L 574.64,246.58 L 573.47,246.63 L 572.81,246.55 L 571.12,245.77 L 570.20,245.28 L 567.96,243.68 L 566.34,242.45 L 563.18,240.52 L 561.60,239.64 L 558.40,238.38 L 556.78,237.82 L 553.41,237.17 L 548.00,236.83 L 546.10,236.85 L 542.62,237.22 L 540.92,237.47 L 537.73,238.34 L 536.16,238.84 L 533.09,240.25 L 528.46,243.03 L 527.27,243.84 L 525.24,244.92 L 524.29,245.36 L 522.75,245.69 L 522.05,245.76 L 521.05,245.33 L 520.21,243.83 L 520.11,243.34 L 520.49,242.22 L 520.76,241.65 L 521.78,240.41 L 522.37,239.78 L 523.94,238.49 L 524.78,237.85 L 526.78,236.57 L 527.83,235.94 L 530.16,234.74 L 531.35,234.16 L 533.89,233.11 L 535.18,232.60 L 535.25,232.58 L 535.09,232.83 L 535.08,233.18 L 535.15,233.95 L 535.34,234.44 L 535.82,235.20 L 536.19,235.37 L 537.02,235.55 L 537.46,235.38 L 538.57,234.69 L 538.94,234.15 L 538.94,233.86 L 538.82,233.29 L 538.57,233.03 L 537.95,232.53 L 537.46,232.35 L 536.57,232.16 L 537.83,231.76 L 541.81,230.80 L 542.98,230.58 L 545.06,230.31 L 546.07,230.20 L 548.00,230.15 L 548.96,230.15 M 566.59,238.13 L 566.00,238.47 L 566.00,238.80 L 566.35,239.72 L 566.87,240.47 L 567.20,240.80 L 568.41,241.72 L 569.02,241.88 L 570.20,242.01 L 570.64,241.83 L 571.39,241.34 L 571.46,240.91 L 571.47,240.45 L 571.38,240.19 L 571.12,239.64 L 570.87,239.34 L 569.60,238.46 L 568.52,238.09 L 567.98,238.04 L 566.95,238.00 M 526.00,238.24 L 524.64,238.54 L 524.12,238.88 L 523.36,239.86 L 523.27,240.62 L 523.47,240.94 L 523.81,241.33 L 524.07,241.47 L 524.65,241.71 L 525.01,241.77 L 526.56,241.91 L 527.38,241.80 L 528.97,241.47 L 529.55,241.16 L 530.08,240.83 L 530.24,240.64 L 530.50,240.23 L 530.50,240.00 L 529.80,238.91 L 528.76,238.40 L 528.09,238.28 L 526.69,238.15 M 560.94,235.00 L 560.28,235.29 L 560.00,235.72 L 560.00,236.00 L 560.18,236.52 L 560.46,236.71 L 561.13,237.00 L 561.56,237.00 L 562.48,236.71 L 562.67,236.27 L 562.50,236.00 L 561.79,235.29 L 561.20,235.00 M 547.36,231.25 L 546.11,231.49 L 545.75,231.85 L 545.21,232.50 L 545.05,232.86 L 545.07,233.02 L 545.17,233.35 L 545.33,233.51 L 545.71,233.84 L 546.01,234.03 L 547.30,234.64 L 548.08,234.79 L 549.68,235.01 L 550.41,234.98 L 551.79,234.83 L 552.22,234.62 L 552.60,234.40 L 552.70,234.25 L 552.81,233.94 L 552.75,233.75 L 551.58,232.40 L 550.29,231.70 L 549.54,231.50 L 548.03,231.20 Z" fill="rgba(141,96,193,1)"/>
<path d="M 254.15,463.25 L 252.73,462.20 L 250.59,460.18 L 249.64,459.16 L 248.39,457.09 L 247.87,456.04 L 247.44,453.79 L 247.63,450.07 L 247.67,449.87 L 247.87,449.23 L 247.99,448.88 L 248.33,447.98 L 248.71,447.02 L 249.82,444.46 L 250.42,443.10 L 251.87,440.00 L 252.61,438.40 L 254.23,435.06 L 255.05,433.39 L 256.69,430.14 L 257.50,428.56 L 259.00,425.71 L 259.72,424.36 L 260.93,422.24 L 261.21,421.77 L 261.68,421.02 L 262.25,420.22 L 262.35,420.10 L 262.61,420.05 L 262.75,420.06 L 263.10,420.29 L 263.29,420.44 L 263.76,420.96 L 264.01,421.27 L 264.61,422.12 L 264.92,422.59 L 265.66,423.79 L 266.05,424.43 L 266.95,426.00 L 267.42,426.84 L 268.49,428.80 L 270.32,432.22 L 271.29,434.04 L 273.14,437.73 L 274.04,439.55 L 275.63,442.92 L 276.37,444.53 L 277.52,447.20 L 277.77,447.81 L 278.15,448.82 L 278.53,450.00 L 278.87,451.28 L 279.11,453.50 L 279.17,454.55 L 278.85,456.28 L 278.62,457.07 L 277.76,458.25 L 275.88,459.32 L 275.36,459.46 L 274.55,460.25 L 274.00,461.79 L 274.00,462.11 L 273.75,462.75 L 273.59,463.07 L 273.06,463.68 L 272.46,464.29 L 270.60,465.36 L 269.58,465.85 L 267.14,466.55 L 263.23,467.00 L 262.47,467.00 L 261.08,466.81 L 260.39,466.69 L 259.01,466.19 L 258.31,465.90 L 256.78,465.04 L 255.98,464.55 M 363.31,450.67 L 361.92,449.48 L 358.85,446.61 L 358.12,445.91 L 356.80,444.59 L 355.23,442.92 L 354.83,442.46 L 353.87,441.13 L 353.37,440.41 L 352.26,438.64 L 351.12,436.79 L 348.69,432.31 L 347.48,430.03 L 345.31,425.43 L 344.81,424.32 L 343.94,422.25 L 342.91,419.50 L 342.55,418.40 L 341.75,416.40 L 341.55,415.95 L 341.21,415.23 L 340.80,414.55 L 340.62,414.34 L 340.36,413.41 L 340.25,412.87 L 340.10,411.39 L 340.04,410.59 L 340.00,408.73 L 339.99,407.77 L 340.05,405.68 L 340.13,403.57 L 340.57,399.38 L 340.69,398.39 L 341.01,396.62 L 341.57,394.44 L 342.00,393.17 L 342.53,390.77 L 342.62,390.23 L 342.70,389.34 L 342.62,388.45 L 342.54,388.25 L 342.54,387.55 L 342.56,387.16 L 342.72,386.15 L 342.91,385.08 L 343.65,382.46 L 344.06,381.14 L 345.04,378.66 L 345.29,378.08 L 345.78,377.11 L 346.48,376.00 L 346.65,375.79 L 347.13,375.04 L 347.39,374.62 L 348.00,373.55 L 349.94,369.75 L 350.30,368.99 L 351.01,367.72 L 351.37,367.13 L 352.06,366.23 L 352.40,365.83 L 353.05,365.31 L 353.96,365.00 L 354.55,365.00 L 355.44,364.27 L 356.32,362.15 L 356.48,361.35 L 357.53,359.60 L 359.69,357.49 L 360.47,356.99 L 362.32,355.52 L 364.70,353.34 L 365.31,352.70 L 366.93,351.67 L 369.20,350.93 L 369.52,350.92 L 370.45,350.64 L 370.95,350.46 L 372.15,349.88 L 376.00,347.44 L 376.80,346.83 L 378.20,345.81 L 378.88,345.33 L 380.10,344.53 L 381.29,343.80 L 383.36,342.93 L 384.39,342.58 L 386.52,342.38 L 390.30,342.63 L 391.24,342.76 L 392.86,343.12 L 393.64,343.32 L 395.03,343.88 L 395.71,344.19 L 396.99,345.01 L 398.93,346.58 L 399.80,347.37 L 400.95,348.57 L 401.45,349.16 L 402.02,350.40 L 402.25,351.08 L 402.43,352.96 L 402.46,353.50 L 402.49,354.80 L 402.50,357.17 L 402.50,358.34 L 402.41,360.38 L 402.35,361.35 L 402.10,363.03 L 401.95,363.84 L 401.48,365.25 L 401.22,365.92 L 400.50,367.12 L 400.10,367.71 L 399.07,368.77 L 398.51,369.29 L 397.12,370.30 L 396.38,370.79 L 394.59,371.80 L 391.39,373.39 L 390.41,373.85 L 388.57,374.78 L 387.69,375.24 L 386.16,376.09 L 385.45,376.50 L 384.41,377.17 L 383.58,377.87 L 383.39,378.18 L 382.55,378.67 L 381.06,379.00 L 380.67,379.00 L 379.76,379.42 L 379.30,379.70 L 378.29,380.60 L 377.78,381.10 L 376.74,382.39 L 376.21,383.07 L 375.18,384.65 L 374.16,386.29 L 372.41,390.06 L 370.66,395.71 L 370.50,396.59 L 370.46,398.11 L 370.47,398.45 L 370.57,398.95 L 370.81,399.38 L 370.86,399.41 L 370.95,399.78 L 371.00,400.00 L 371.08,400.73 L 371.12,401.13 L 371.18,402.18 L 371.21,402.74 L 371.26,404.06 L 371.31,405.45 L 371.35,408.88 L 371.32,414.67 L 371.29,416.71 L 371.23,421.43 L 371.20,423.85 L 371.15,428.89 L 371.12,431.39 L 371.09,436.13 L 371.08,437.27 L 371.06,439.39 L 371.05,442.25 L 371.04,443.48 L 371.02,445.62 L 371.01,446.64 L 370.96,448.38 L 370.94,449.21 L 370.87,450.60 L 370.83,451.25 L 370.73,452.31 L 370.68,452.80 L 370.55,453.55 L 370.49,453.90 L 370.32,454.39 L 369.69,455.00 L 369.51,455.00 L 368.78,454.66 L 368.37,454.44 L 367.28,453.73 L 366.70,453.34 L 365.38,452.35 L 364.71,451.84 M 539.63,282.36 L 536.78,279.72 L 542.11,276.43 L 542.84,275.98 L 544.25,275.20 L 544.93,274.84 L 546.13,274.27 L 546.69,274.03 L 547.55,273.74 L 548.32,273.70 L 548.58,273.86 L 548.83,274.56 L 548.92,274.95 L 548.86,276.01 L 548.80,276.57 L 548.48,277.85 L 548.30,278.50 L 547.80,279.84 L 547.26,281.17 L 545.85,283.42 L 545.49,283.90 L 544.76,284.57 L 543.72,285.00 L 543.55,285.00 L 543.01,284.79 L 542.72,284.66 L 542.01,284.22 L 541.27,283.75 M 552.98,261.48 L 552.56,260.97 L 552.21,260.18 L 552.12,259.83 L 552.42,259.38 L 552.64,259.20 L 553.54,259.11 L 555.54,259.42 L 556.08,259.56 L 556.82,259.81 L 557.13,259.94 L 557.44,260.23 L 557.55,260.39 L 557.47,260.78 L 556.97,261.54 L 556.58,262.00 L 555.92,262.58 L 555.59,262.81 L 554.99,262.92 L 554.69,262.91 L 554.05,262.55 L 553.73,262.31 M 543.00,261.00 L 543.00,260.73 L 543.29,260.29 L 544.00,260.00 L 544.27,260.00 L 544.71,260.29 L 545.00,261.00 L 545.00,261.27 L 544.71,261.71 L 544.00,262.00 L 543.73,262.00 L 543.29,261.71 L 543.11,261.52 M 534.25,252.33 L 533.69,252.11 L 533.12,251.41 L 532.91,251.05 L 533.00,250.29 L 533.11,249.93 L 533.75,249.40 L 535.25,249.18 L 535.87,249.27 L 536.84,249.82 L 537.50,250.92 L 537.50,251.31 L 537.26,251.91 L 537.10,252.18 L 536.58,252.50 L 536.30,252.63 L 535.56,252.65 L 535.16,252.63 M 548.54,246.07 L 548.38,245.81 L 548.41,245.24 L 548.89,244.57 L 549.19,244.38 L 550.03,244.33 L 550.47,244.35 L 551.39,244.62 L 551.83,244.79 L 552.52,245.27 L 553.00,246.11 L 553.00,246.40 L 552.41,246.77 L 552.05,246.91 L 551.05,246.98 L 550.54,246.97 L 549.55,246.74 L 549.10,246.59 M 523.47,240.94 L 523.27,240.62 L 523.36,239.86 L 524.12,238.88 L 524.64,238.54 L 526.00,238.24 L 526.69,238.15 L 528.09,238.28 L 528.76,238.40 L 529.80,238.91 L 530.50,240.00 L 530.50,240.23 L 530.24,240.64 L 530.08,240.83 L 529.55,241.16 L 528.97,241.47 L 527.38,241.80 L 526.56,241.91 L 525.01,241.77 L 524.65,241.71 L 524.07,241.47 L 523.81,241.33 M 567.20,240.80 L 566.87,240.47 L 566.35,239.72 L 566.00,238.80 L 566.00,238.47 L 566.59,238.13 L 566.95,238.00 L 567.98,238.04 L 568.52,238.09 L 569.60,238.46 L 570.87,239.34 L 571.12,239.64 L 571.38,240.19 L 571.47,240.45 L 571.46,240.91 L 571.39,241.34 L 570.64,241.83 L 570.20,242.01 L 569.02,241.88 L 568.41,241.72 M 560.00,236.00 L 560.00,235.72 L 560.28,235.29 L 560.94,235.00 L 561.20,235.00 L 561.79,235.29 L 562.50,236.00 L 562.67,236.27 L 562.48,236.71 L 561.56,237.00 L 561.13,237.00 L 560.46,236.71 L 560.18,236.52 M 535.34,234.44 L 535.15,233.95 L 535.08,233.18 L 535.09,232.83 L 535.38,232.38 L 535.57,232.19 L 536.19,232.08 L 537.46,232.35 L 537.95,232.53 L 538.57,233.03 L 538.82,233.29 L 538.94,233.86 L 538.94,234.15 L 538.57,234.69 L 537.46,235.38 L 537.02,235.55 L 536.19,235.37 L 535.82,235.20 M 546.01,234.03 L 545.71,233.84 L 545.33,233.51 L 545.17,233.35 L 545.07,233.02 L 545.05,232.86 L 545.21,232.50 L 545.75,231.85 L 546.11,231.49 L 547.36,231.25 L 548.03,231.20 L 549.54,231.50 L 550.29,231.70 L 551.58,232.40 L 552.75,233.75 L 552.81,233.94 L 552.70,234.25 L 552.60,234.40 L 552.22,234.62 L 551.79,234.83 L 550.41,234.98 L 549.68,235.01 L 548.08,234.79 L 547.30,234.64 Z" fill="rgba(143,81,222,1)"/>
</g>
</svg>